<svg width="81" height="81" viewBox="0 0 81 81" fill="none" xmlns="http://www.w3.org/2000/svg">
<path fill-rule="evenodd" clip-rule="evenodd" d="M43.7392 44.132C44.9546 42.8331 46.9566 42.8007 48.2106 44.0597L75.6161 71.5729C76.8701 72.8319 76.9014 74.9055 75.686 76.2044C74.4705 77.5034 72.4686 77.5358 71.2145 76.2768L43.809 48.7636C42.555 47.5046 42.5237 45.431 43.7392 44.132Z" fill="#333333"/>
<path fill-rule="evenodd" clip-rule="evenodd" d="M27.8801 51.2157C39.5229 51.2157 48.9612 41.4394 48.9612 29.3798C48.9612 17.3202 39.5229 7.54393 27.8801 7.54393C16.2373 7.54393 6.79895 17.3202 6.79895 29.3798C6.79895 41.4394 16.2373 51.2157 27.8801 51.2157ZM27.8801 57.7665C43.0157 57.7665 55.2856 45.0573 55.2856 29.3798C55.2856 13.7023 43.0157 0.993164 27.8801 0.993164C12.7445 0.993164 0.474609 13.7023 0.474609 29.3798C0.474609 45.0573 12.7445 57.7665 27.8801 57.7665Z" fill="#333333"/>
<path d="M53.7263 63.4962C52.8872 62.6602 52.8614 61.2779 53.6685 60.4088L59.9338 53.6627C60.7409 52.7936 62.0755 52.7669 62.9145 53.6029L78.955 69.586C79.794 70.422 79.8199 71.8043 79.0127 72.6734L72.7475 79.4195C71.9403 80.2886 70.6058 80.3154 69.7667 79.4793L53.7263 63.4962Z" fill="#333333"/>
<path d="M30.8305 42.0448C30.8305 43.7332 29.5091 45.1018 27.8791 45.1018C26.2491 45.1018 24.9277 43.7332 24.9277 42.0448C24.9277 40.3565 26.2491 38.9878 27.8791 38.9878C29.5091 38.9878 30.8305 40.3565 30.8305 42.0448Z" fill="#177EC9"/>
<path d="M24.5915 15.7086C24.5446 14.47 25.5013 13.4395 26.698 13.4395H29.0591C30.2558 13.4395 31.2125 14.47 31.1656 15.7086L30.5074 33.0938C30.4521 34.5561 29.2915 35.7121 27.8786 35.7121L-nan -nanL27.8786 35.7121C26.4657 35.7121 25.3051 34.5561 25.2497 33.0938L24.5915 15.7086Z" fill="#177EC9"/>
</svg>
