<svg width="81" height="81" viewBox="0 0 81 81" fill="none" xmlns="http://www.w3.org/2000/svg">
<path d="M0.474609 26.2781C0.474609 25.1335 1.40252 24.2056 2.54715 24.2056H59.7492C60.8939 24.2056 61.8218 25.1335 61.8218 26.2781V37.0553C61.8218 38.2 60.8939 39.1279 59.7492 39.1279H2.54715C1.40252 39.1279 0.474609 38.2 0.474609 37.0553V26.2781Z" fill="#333333"/>
<path d="M25.76 62.3403C24.6154 62.3403 23.6875 61.4124 23.6875 60.2678L23.6875 3.06572C23.6875 1.92109 24.6154 0.993181 25.76 0.993181H36.5372C37.6819 0.993181 38.6098 1.92109 38.6098 3.06572V60.2678C38.6098 61.4124 37.6819 62.3403 36.5372 62.3403H25.76Z" fill="#333333"/>
<path d="M49.028 57.1666C48.2186 57.976 46.9064 57.976 46.097 57.1666L5.64902 16.7186C4.83964 15.9093 4.83964 14.597 5.64902 13.7876L13.2697 6.16699C14.079 5.35761 15.3913 5.35761 16.2007 6.16699L56.6486 46.615C57.458 47.4243 57.458 48.7366 56.6486 49.546L49.028 57.1666Z" fill="#333333"/>
<path d="M56.6478 13.7877C57.4572 14.5971 57.4572 15.9093 56.6478 16.7187L16.1998 57.1667C15.3904 57.9761 14.0782 57.9761 13.2688 57.1667L5.64816 49.5461C4.83878 48.7367 4.83878 47.4244 5.64816 46.615L46.0961 6.16707C46.9055 5.35769 48.2178 5.35769 49.0271 6.16707L56.6478 13.7877Z" fill="#333333"/>
<path d="M56.0187 31.4595C56.0187 45.3095 44.791 56.5372 30.941 56.5372C17.091 56.5372 5.86328 45.3095 5.86328 31.4595C5.86328 17.6094 17.091 6.38177 30.941 6.38177C44.791 6.38177 56.0187 17.6094 56.0187 31.4595Z" fill="#333333"/>
<path fill-rule="evenodd" clip-rule="evenodd" d="M30.7328 39.9569C35.5403 39.9569 39.4375 36.0597 39.4375 31.2522C39.4375 26.4448 35.5403 22.5476 30.7328 22.5476C25.9254 22.5476 22.0282 26.4448 22.0282 31.2522C22.0282 36.0597 25.9254 39.9569 30.7328 39.9569ZM30.7328 46.1745C38.9742 46.1745 45.6551 39.4936 45.6551 31.2522C45.6551 23.0109 38.9742 16.3299 30.7328 16.3299C22.4915 16.3299 15.8105 23.0109 15.8105 31.2522C15.8105 39.4936 22.4915 46.1745 30.7328 46.1745Z" fill="white"/>
<path d="M78.4024 62.5477C78.4024 71.5903 71.0719 78.9208 62.0293 78.9208C52.9867 78.9208 45.6562 71.5903 45.6562 62.5477C45.6562 53.5051 52.9867 46.1746 62.0293 46.1746C71.0719 46.1746 78.4024 53.5051 78.4024 62.5477Z" fill="#177EC9"/>
<path fill-rule="evenodd" clip-rule="evenodd" d="M80.4752 62.5475C80.4752 72.7347 72.2168 80.9931 62.0296 80.9931C51.8424 80.9931 43.584 72.7347 43.584 62.5475C43.584 52.3603 51.8424 44.1019 62.0296 44.1019C72.2168 44.1019 80.4752 52.3603 80.4752 62.5475ZM62.0296 78.9205C71.0722 78.9205 78.4026 71.5901 78.4026 62.5475C78.4026 53.5049 71.0722 46.1744 62.0296 46.1744C52.987 46.1744 45.6565 53.5049 45.6565 62.5475C45.6565 71.5901 52.987 78.9205 62.0296 78.9205Z" fill="white"/>
<path fill-rule="evenodd" clip-rule="evenodd" d="M69.3831 57.2656C70.3544 58.2368 70.3544 59.8115 69.3831 60.7828L62.1292 68.0367C61.158 69.0079 59.5833 69.0079 58.612 68.0367L54.2597 63.6843C53.2884 62.7131 53.2884 61.1384 54.2597 60.1671C55.2309 59.1959 56.8057 59.1959 57.7769 60.1671L60.3706 62.7608L65.8659 57.2656C66.8372 56.2943 68.4119 56.2943 69.3831 57.2656Z" fill="white"/>
</svg>
