<svg width="81" height="81" viewBox="0 0 81 81" fill="none" xmlns="http://www.w3.org/2000/svg">
<path d="M68.8617 48.6545V66.9609C68.8617 69.7224 66.6231 71.9609 63.8617 71.9609H42.9746" stroke="#177EC9" stroke-width="2" stroke-linecap="square"/>
<path d="M68.8613 17.6867V33.3063" stroke="#177EC9" stroke-width="2" stroke-linecap="square"/>
<path d="M76.6035 17.6867V25.5899" stroke="#177EC9" stroke-width="2" stroke-linecap="square"/>
<path d="M72.7324 40.9932V40.9932C74.8703 40.9932 76.6034 42.7263 76.6034 44.8641V69.3803" stroke="#177EC9" stroke-width="2" stroke-linecap="square"/>
<path d="M53.2969 77.1221H68.942" stroke="#177EC9" stroke-width="2" stroke-linecap="square"/>
<path d="M12.0876 28.0092V28.0898C12.0876 30.2277 10.3545 31.9608 8.21667 31.9608V31.9608C6.07879 31.9608 4.3457 33.6939 4.3457 35.8317V48.8156" stroke="#177EC9" stroke-width="2" stroke-linecap="square"/>
<path d="M25.0726 7.44482V7.44482C23.6028 7.44482 22.4113 8.63632 22.4113 10.1061V13.8964C22.4113 15.3217 21.2559 16.4771 19.8306 16.4771V16.4771C18.4054 16.4771 17.25 17.6325 17.25 19.0577V22.9945" stroke="#177EC9" stroke-width="2" stroke-linecap="square"/>
<path d="M4.3457 11.2351V15.1867C4.3457 17.3246 6.07879 19.0577 8.21667 19.0577V19.0577C10.3545 19.0577 12.0876 20.7908 12.0876 22.9286V23.0093" stroke="#177EC9" stroke-width="2" stroke-linecap="square"/>
<path d="M12.0879 47.3642V57.848" stroke="#177EC9" stroke-width="2" stroke-linecap="square"/>
<path d="M19.75 53.8965H24.1855" stroke="#177EC9" stroke-width="2" stroke-linecap="square"/>
<path d="M56.6035 53.8963H61.2003" stroke="#177EC9" stroke-width="2" stroke-linecap="square"/>
<path d="M56.6035 48.735H61.2003" stroke="#177EC9" stroke-width="2" stroke-linecap="square"/>
<path d="M56.6035 43.5738H61.2003" stroke="#177EC9" stroke-width="2" stroke-linecap="square"/>
<path d="M56.6035 38.4125H61.2003" stroke="#177EC9" stroke-width="2" stroke-linecap="square"/>
<path d="M56.6035 33.2513H61.2003" stroke="#177EC9" stroke-width="2" stroke-linecap="square"/>
<path d="M56.6035 28.09H61.2003" stroke="#177EC9" stroke-width="2" stroke-linecap="square"/>
<path d="M19.75 28.0898H24.4274" stroke="#177EC9" stroke-width="2" stroke-linecap="square"/>
<path d="M19.75 33.2515H24.3468" stroke="#177EC9" stroke-width="2" stroke-linecap="square"/>
<path d="M19.75 38.4126H24.2661" stroke="#177EC9" stroke-width="2" stroke-linecap="square"/>
<path d="M19.75 43.5737H24.3468" stroke="#177EC9" stroke-width="2" stroke-linecap="square"/>
<path d="M19.75 48.7349H24.4274" stroke="#177EC9" stroke-width="2" stroke-linecap="square"/>
<path d="M53.4102 24.4759V20.0978" stroke="#177EC9" stroke-width="2" stroke-linecap="square"/>
<path d="M48.2344 24.4758V20.0977" stroke="#177EC9" stroke-width="2" stroke-linecap="square"/>
<path d="M43.0625 24.4758V20.0977" stroke="#177EC9" stroke-width="2" stroke-linecap="square"/>
<path d="M37.8867 24.0778V20.0977" stroke="#177EC9" stroke-width="2" stroke-linecap="square"/>
<path d="M32.7324 24.8559V20.0978" stroke="#177EC9" stroke-width="2" stroke-linecap="square"/>
<path d="M27.5703 24.7753V20.0978" stroke="#177EC9" stroke-width="2" stroke-linecap="square"/>
<path d="M53.4102 61.8887V57.1126" stroke="#177EC9" stroke-width="2" stroke-linecap="square"/>
<path d="M48.2344 61.8889V57.1128" stroke="#177EC9" stroke-width="2" stroke-linecap="square"/>
<path d="M43.0625 61.8889V57.1128" stroke="#177EC9" stroke-width="2" stroke-linecap="square"/>
<path d="M37.8945 61.9515V57.1128" stroke="#177EC9" stroke-width="2" stroke-linecap="square"/>
<path d="M32.7324 61.8707V57.1126" stroke="#177EC9" stroke-width="2" stroke-linecap="square"/>
<path d="M27.5703 61.79V57.1126" stroke="#177EC9" stroke-width="2" stroke-linecap="square"/>
<path d="M48.2171 40.9126L48.2171 43.7353C48.2171 46.4967 45.9785 48.7352 43.2171 48.7352H40.3945" stroke="#177EC9" stroke-width="2" stroke-linecap="square"/>
<circle cx="48.2167" cy="33.2513" r="2.87097" stroke="#333333" stroke-width="2"/>
<circle cx="4.34558" cy="4.86413" r="2.87097" stroke="#333333" stroke-width="2"/>
<circle cx="32.7323" cy="7.44476" r="2.87097" stroke="#333333" stroke-width="2"/>
<circle cx="24.9901" cy="71.9608" r="2.87097" stroke="#333333" stroke-width="2"/>
<circle cx="35.3143" cy="71.961" r="2.87097" stroke="#333333" stroke-width="2"/>
<circle cx="4.34558" cy="56.477" r="2.87097" stroke="#333333" stroke-width="2"/>
<circle cx="12.0878" cy="39.7029" r="2.87097" stroke="#333333" stroke-width="2"/>
<circle cx="76.6034" cy="77.1222" r="2.87097" stroke="#333333" stroke-width="2"/>
<circle cx="76.6034" cy="33.2513" r="2.87097" stroke="#333333" stroke-width="2"/>
<circle cx="68.8632" cy="40.993" r="2.87097" stroke="#333333" stroke-width="2"/>
<circle cx="32.7323" cy="48.7351" r="2.87097" stroke="#333333" stroke-width="2"/>
<rect x="24.6992" y="25.2188" width="31.5484" height="31.5484" rx="4" stroke="#177EC9" stroke-width="2"/>
<path d="M32.7324 41.0531V38.1488C32.7324 35.3874 34.971 33.1488 37.7324 33.1488L40.555 33.1488" stroke="#177EC9" stroke-width="2" stroke-linecap="square"/>
<rect x="40.1836" y="1.99316" width="16.0645" height="10.9032" rx="4" stroke="#333333" stroke-width="2"/>
<rect x="44.3457" y="6.15442" width="2.58065" height="2.58065" rx="1.29032" fill="#333333"/>
<rect x="49.5059" y="6.15442" width="2.58065" height="2.58065" rx="1.29032" fill="#333333"/>
<rect x="60.8301" y="1.99316" width="16.0645" height="10.9032" rx="4" stroke="#333333" stroke-width="2"/>
<rect x="64.9922" y="6.1543" width="2.58065" height="2.58065" rx="1.29032" fill="#333333"/>
<rect x="70.1523" y="6.1543" width="2.58065" height="2.58065" rx="1.29032" fill="#333333"/>
<path d="M57.25 7.44482H59.9113" stroke="#333333" stroke-width="2" stroke-linecap="square"/>
<rect x="1.47461" y="66.5094" width="16.0645" height="10.9032" rx="4" stroke="#333333" stroke-width="2"/>
<rect x="5.63672" y="70.6709" width="2.58065" height="2.58065" rx="1.29032" fill="#333333"/>
<path d="M13.3789 78.4125H15.9596V79.7029C15.9596 80.4155 15.3819 80.9932 14.6692 80.9932C13.9566 80.9932 13.3789 80.4155 13.3789 79.7029V78.4125Z" fill="#177EC9"/>
<path d="M13.3789 78.4125H15.9596V79.7029C15.9596 80.4155 15.3819 80.9932 14.6692 80.9932C13.9566 80.9932 13.3789 80.4155 13.3789 79.7029V78.4125Z" fill="#177EC9"/>
<path d="M8.2168 78.4125H10.7974V79.7029C10.7974 80.4155 10.2197 80.9932 9.50712 80.9932C8.79449 80.9932 8.2168 80.4155 8.2168 79.7029V78.4125Z" fill="#177EC9"/>
<path d="M8.2168 78.4125H10.7974V79.7029C10.7974 80.4155 10.2197 80.9932 9.50712 80.9932C8.79449 80.9932 8.2168 80.4155 8.2168 79.7029V78.4125Z" fill="#177EC9"/>
<path d="M3.05469 78.4126H5.63533V79.7029C5.63533 80.4155 5.05764 80.9932 4.34501 80.9932C3.63238 80.9932 3.05469 80.4155 3.05469 79.7029V78.4126Z" fill="#177EC9"/>
<path d="M3.05469 78.4126H5.63533V79.7029C5.63533 80.4155 5.05764 80.9932 4.34501 80.9932C3.63238 80.9932 3.05469 80.4155 3.05469 79.7029V78.4126Z" fill="#177EC9"/>
<path d="M13.3789 64.2191C13.3789 63.5065 13.9566 62.9288 14.6692 62.9288C15.3819 62.9288 15.9596 63.5065 15.9596 64.2191V65.5094H13.3789V64.2191Z" fill="#177EC9"/>
<path d="M13.3789 64.2191C13.3789 63.5065 13.9566 62.9288 14.6692 62.9288C15.3819 62.9288 15.9596 63.5065 15.9596 64.2191V65.5094H13.3789V64.2191Z" fill="#177EC9"/>
<path d="M8.2168 64.2191C8.2168 63.5065 8.79449 62.9288 9.50712 62.9288C10.2197 62.9288 10.7974 63.5065 10.7974 64.2191V65.5094H8.2168V64.2191Z" fill="#177EC9"/>
<path d="M8.2168 64.2191C8.2168 63.5065 8.79449 62.9288 9.50712 62.9288C10.2197 62.9288 10.7974 63.5065 10.7974 64.2191V65.5094H8.2168V64.2191Z" fill="#177EC9"/>
<path d="M3.05469 64.219C3.05469 63.5064 3.63238 62.9287 4.34501 62.9287C5.05764 62.9287 5.63533 63.5064 5.63533 64.219V65.5094H3.05469V64.219Z" fill="#177EC9"/>
<path d="M3.05469 64.219C3.05469 63.5064 3.63238 62.9287 4.34501 62.9287C5.05764 62.9287 5.63533 63.5064 5.63533 64.219V65.5094H3.05469V64.219Z" fill="#177EC9"/>
<rect x="10.7969" y="70.6709" width="2.58065" height="2.58065" rx="1.29032" fill="#333333"/>
</svg>
