<svg width="81" height="81" viewBox="0 0 81 81" fill="none" xmlns="http://www.w3.org/2000/svg">
<path fill-rule="evenodd" clip-rule="evenodd" d="M40.5858 80.9932C38.75 80.9932 37.2617 79.5049 37.2617 77.6691L37.2617 4.31727C37.2617 2.48141 38.75 0.993164 40.5858 0.993164C42.4217 0.993164 43.9099 2.48141 43.9099 4.31727L43.9099 77.6691C43.9099 79.5049 42.4217 80.9932 40.5858 80.9932Z" fill="#333333"/>
<path fill-rule="evenodd" clip-rule="evenodd" d="M40.5858 80.9932C38.75 80.9932 37.2617 79.5049 37.2617 77.6691L37.2617 4.31727C37.2617 2.48141 38.75 0.993164 40.5858 0.993164C42.4217 0.993164 43.9099 2.48141 43.9099 4.31727L43.9099 77.6691C43.9099 79.5049 42.4217 80.9932 40.5858 80.9932Z" fill="#333333"/>
<path fill-rule="evenodd" clip-rule="evenodd" d="M0.474609 41.104C0.474609 39.2681 1.96286 37.7799 3.79871 37.7799H77.1505C78.9864 37.7799 80.4746 39.2681 80.4746 41.104C80.4746 42.9398 78.9864 44.4281 77.1505 44.4281H3.79871C1.96286 44.4281 0.474609 42.9398 0.474609 41.104Z" fill="#333333"/>
<path fill-rule="evenodd" clip-rule="evenodd" d="M0.474609 41.104C0.474609 39.2681 1.96286 37.7799 3.79871 37.7799H77.1505C78.9864 37.7799 80.4746 39.2681 80.4746 41.104C80.4746 42.9398 78.9864 44.4281 77.1505 44.4281H3.79871C1.96286 44.4281 0.474609 42.9398 0.474609 41.104Z" fill="#333333"/>
<path d="M73.3846 41.1039C73.3846 59.2177 58.7006 73.9017 40.5868 73.9017C22.4731 73.9017 7.78906 59.2177 7.78906 41.1039C7.78906 22.9902 22.4731 8.30615 40.5868 8.30615C58.7006 8.30615 73.3846 22.9902 73.3846 41.1039Z" fill="white"/>
<path fill-rule="evenodd" clip-rule="evenodd" d="M40.5868 62.8214C52.5811 62.8214 62.3043 53.0982 62.3043 41.1039C62.3043 29.1097 52.5811 19.3865 40.5868 19.3865C28.5926 19.3865 18.8694 29.1097 18.8694 41.1039C18.8694 53.0982 28.5926 62.8214 40.5868 62.8214ZM40.5868 73.9017C58.7006 73.9017 73.3846 59.2177 73.3846 41.1039C73.3846 22.9902 58.7006 8.30615 40.5868 8.30615C22.4731 8.30615 7.78906 22.9902 7.78906 41.1039C7.78906 59.2177 22.4731 73.9017 40.5868 73.9017Z" fill="#333333"/>
<path fill-rule="evenodd" clip-rule="evenodd" d="M50.7895 32.8738C52.1527 34.1034 52.2611 36.2053 51.0315 37.5686L40.8376 48.8705C40.1872 49.5915 39.2541 49.9922 38.2835 49.9671C37.3128 49.9421 36.4016 49.4939 35.7893 48.7403L30.0275 41.6489C28.8699 40.224 29.0864 38.1305 30.5113 36.9728C31.9361 35.8152 34.0296 36.0317 35.1873 37.4566L38.501 41.535L46.0947 33.1158C47.3243 31.7526 49.4262 31.6442 50.7895 32.8738Z" fill="#333333"/>
<path fill-rule="evenodd" clip-rule="evenodd" d="M50.7895 32.8738C52.1527 34.1034 52.2611 36.2053 51.0315 37.5686L40.8376 48.8705C40.1872 49.5915 39.2541 49.9922 38.2835 49.9671C37.3128 49.9421 36.4016 49.4939 35.7893 48.7403L30.0275 41.6489C28.8699 40.224 29.0864 38.1305 30.5113 36.9728C31.9361 35.8152 34.0296 36.0317 35.1873 37.4566L38.501 41.535L46.0947 33.1158C47.3243 31.7526 49.4262 31.6442 50.7895 32.8738Z" fill="#177EC9"/>
</svg>
