<svg width="28" height="17" viewBox="0 0 28 17" fill="none" xmlns="http://www.w3.org/2000/svg">
<path d="M17.6318 7.84818C17.6318 10.5969 15.4035 12.8252 12.6548 12.8252C10.8609 12.8252 9.28874 11.8762 8.41291 10.4528C8.18189 11.4737 7.2955 12.2505 6.21252 12.3299C7.63037 14.3642 9.98717 15.6954 12.6548 15.6954C16.9887 15.6954 20.502 12.1821 20.502 7.84818C20.502 3.51429 16.9887 0.000976562 12.6548 0.000976562C8.32531 0.000976562 4.81472 3.50717 4.80762 7.835C5.1669 7.62977 5.58404 7.51231 6.02896 7.51231C6.66895 7.51231 7.25145 7.75534 7.68698 8.15307C7.68088 8.05221 7.67779 7.95056 7.67779 7.84818C7.67779 5.09945 9.90604 2.87116 12.6548 2.87116C15.4035 2.87116 17.6318 5.09945 17.6318 7.84818Z" fill="url(#paint0_linear_474_15551)"/>
<path fill-rule="evenodd" clip-rule="evenodd" d="M22.5787 16C25.4145 15.9836 27.7084 13.6796 27.7084 10.8399C27.7084 7.98999 25.398 5.67969 22.5481 5.67969C20.1962 5.67969 17.9681 7.66438 17.3879 9.37428C16.8077 11.0842 15.6297 12.0328 14.3651 12.5192C14.3674 12.5263 14.3699 12.5333 14.3723 12.5402C13.0872 12.94 12.3459 12.9078 11.0419 12.5192H6.0293V16.0001H22.5454C22.5462 16.0001 22.5472 16.0001 22.5481 16.0001C22.5491 16.0001 22.55 16.0001 22.5508 16.0001H22.5787V16ZM24.8992 10.8399C24.8992 12.1384 23.8466 13.191 22.5481 13.191C21.2496 13.191 20.197 12.1384 20.197 10.8399C20.197 9.54143 21.2496 8.4888 22.5481 8.4888C23.8466 8.4888 24.8992 9.54143 24.8992 10.8399Z" fill="url(#paint1_linear_474_15551)"/>
<path d="M6.05093 3.88477C4.85416 3.88477 3.68428 4.24008 2.68922 4.90578C1.69414 5.57147 0.918582 6.51765 0.460602 7.62468C0.00262176 8.73169 -0.117207 9.94985 0.116269 11.1251C0.349746 12.3002 0.92604 13.3797 1.77228 14.227C2.61852 15.0742 3.69669 15.6513 4.87046 15.885C6.04422 16.1188 7.26086 15.9988 8.36651 15.5403C9.47215 15.0818 10.4172 14.3052 11.0821 13.3089C11.747 12.3126 12.1018 11.1413 12.1018 9.94307C12.1018 9.1475 11.9453 8.3597 11.6412 7.62468C11.3371 6.88965 10.8914 6.22177 10.3295 5.65921C9.76768 5.09664 9.10065 4.65039 8.36651 4.34593C7.63239 4.04147 6.84554 3.88477 6.05093 3.88477ZM6.05093 12.2887C5.58759 12.2887 5.13465 12.1511 4.74939 11.8933C4.36414 11.6356 4.06387 11.2693 3.88655 10.8407C3.70924 10.4121 3.66285 9.94053 3.75324 9.48548C3.84364 9.03051 4.06676 8.61257 4.39439 8.28453C4.72203 7.9565 5.13945 7.73311 5.59389 7.6426C6.04833 7.5521 6.51937 7.59854 6.94744 7.77608C7.37551 7.95361 7.74139 8.25424 7.99881 8.63997C8.25623 9.0257 8.39363 9.47918 8.39363 9.94307C8.39401 10.2514 8.3337 10.5567 8.21615 10.8416C8.0986 11.1266 7.92609 11.3855 7.70852 11.6035C7.49093 11.8217 7.23255 11.9947 6.94812 12.1128C6.6637 12.2308 6.35883 12.2916 6.05093 12.2916V12.2887Z" fill="#6763F7"/>
<path d="M22.4342 2.56182C23.1222 2.56182 23.6799 2.00342 23.6799 1.3146C23.6799 0.62578 23.1222 0.0673828 22.4342 0.0673828C21.7462 0.0673828 21.1885 0.62578 21.1885 1.3146C21.1885 2.00342 21.7462 2.56182 22.4342 2.56182Z" fill="#FFAD4D"/>
<defs>
<linearGradient id="paint0_linear_474_15551" x1="10.1205" y1="-2.228" x2="19.8608" y2="7.87871" gradientUnits="userSpaceOnUse">
<stop stop-color="#6763F7"/>
<stop offset="1" stop-color="#4A40C6"/>
</linearGradient>
<linearGradient id="paint1_linear_474_15551" x1="16.7466" y1="9.34375" x2="16.7466" y2="16.0001" gradientUnits="userSpaceOnUse">
<stop stop-color="#6864F9"/>
<stop offset="1" stop-color="#493FC5"/>
</linearGradient>
</defs>
</svg>
