<svg width="14" height="16" viewBox="0 0 14 16" fill="none" xmlns="http://www.w3.org/2000/svg">
<path fill-rule="evenodd" clip-rule="evenodd" d="M5.09659 4.08152C5.12935 3.87341 5.26282 3.70311 5.44257 3.6169C5.52438 3.57779 5.61564 3.55595 5.7113 3.55595H9.60933C10.0712 3.55595 10.5017 3.58627 10.8955 3.64966C11.0079 3.66775 11.1173 3.68861 11.2237 3.71224C11.3301 3.73587 11.4333 3.76211 11.5332 3.79144C11.5832 3.80595 11.6322 3.82127 11.6806 3.8374C11.8739 3.90161 12.0538 3.97723 12.2194 4.0649C12.4147 2.82032 12.2181 1.97338 11.5449 1.20629C10.8037 0.361788 9.46478 0 7.75166 0H2.7787C2.42865 0 2.13058 0.254718 2.07598 0.600536L0.00531776 13.7313C-0.0355871 13.9904 0.1647 14.2246 0.426915 14.2246H3.4969L5.09659 4.08152Z" fill="#27346A"/>
<path fill-rule="evenodd" clip-rule="evenodd" d="M12.2193 4.06543C12.2044 4.16044 12.188 4.25708 12.1684 4.35665C11.5128 7.72373 9.26908 8.8878 6.40345 8.8878H4.94424C4.59419 8.8878 4.29856 9.14269 4.24397 9.4885L3.2849 15.569C3.24921 15.7955 3.4244 16.0005 3.6537 16.0005H6.24146C6.54768 16.0005 6.80843 15.7778 6.85618 15.4751L6.8816 15.3436L7.36904 12.2524L7.40049 12.0816C7.44824 11.779 7.70899 11.5562 8.0152 11.5562H8.40225C10.9092 11.5562 12.8721 10.5377 13.4458 7.59221C13.6853 6.36148 13.5615 5.33413 12.9277 4.61186C12.736 4.39348 12.4975 4.21275 12.2193 4.06543Z" fill="#2790C3"/>
<path fill-rule="evenodd" clip-rule="evenodd" d="M11.5332 3.79115C11.4333 3.76182 11.3301 3.73558 11.2237 3.71195C11.1173 3.68832 11.008 3.66746 10.8955 3.64937C10.5018 3.58598 10.0712 3.55566 9.60936 3.55566H5.71134C5.61568 3.55566 5.52441 3.5775 5.4426 3.61661C5.26285 3.70282 5.12938 3.87313 5.09662 4.08123L4.2681 9.33433L4.24414 9.48769C4.29873 9.14187 4.59436 8.88699 4.94441 8.88699H6.40363C9.26925 8.88699 11.513 7.72291 12.1686 4.35584C12.1882 4.25626 12.2046 4.15962 12.2195 4.06461C12.0539 3.97694 11.874 3.90132 11.6807 3.83711C11.6323 3.82098 11.5832 3.80566 11.5332 3.79115Z" fill="#1F264F"/>
</svg>