<svg width="35" height="36" viewBox="0 0 35 36" fill="none" xmlns="http://www.w3.org/2000/svg">
<path d="M29.4302 12.9849C29.602 12.4048 29.4302 11.9778 28.6041 11.9778H25.8706C25.1744 11.9778 24.8542 12.3444 24.6825 12.7528C24.6825 12.7528 23.2902 16.1454 21.3224 18.3452C20.6866 18.9811 20.3942 19.1853 20.0461 19.1853C19.8744 19.1853 19.6099 18.9811 19.6099 18.4009V12.9849C19.6099 12.2887 19.415 11.9778 18.8395 11.9778H14.5419C14.1056 11.9778 13.8457 12.3027 13.8457 12.6043C13.8457 13.2633 14.8296 13.4165 14.9317 15.2729V19.3013C14.9317 20.1831 14.7739 20.3455 14.4259 20.3455C13.4977 20.3455 11.2421 16.939 9.90554 13.0406C9.63636 12.2841 9.37182 11.9778 8.67103 11.9778H5.93748C5.15779 11.9778 5 12.3444 5 12.7528C5 13.4768 5.9282 17.0736 9.32077 21.826C11.5809 25.07 14.7647 26.829 17.6607 26.829C19.401 26.829 19.6145 26.4391 19.6145 25.7662C19.6145 22.666 19.4567 22.3736 20.3292 22.3736C20.733 22.3736 21.4291 22.5778 23.0535 24.1418C24.9099 25.9983 25.2162 26.829 26.2558 26.829H28.9893C29.769 26.829 30.1635 26.4391 29.9361 25.6687C29.4163 24.049 25.9031 20.7168 25.7453 20.494C25.3415 19.9742 25.4575 19.7422 25.7453 19.2781C25.7499 19.2734 29.0868 14.5767 29.4302 12.9849Z" fill="#333333"/>
<rect x="0.5" y="1.47778" width="34" height="34" rx="7.5" stroke="#333333"/>
</svg>
