<svg width="30" height="30" viewBox="0 0 32 32" fill="none" xmlns="http://www.w3.org/2000/svg">
<path d="M1.64549 32C1.22397 32 0.802453 31.8397 0.482195 31.517C-0.160732 30.8741 -0.160732 29.8317 0.482195 29.1888L29.1889 0.482194C29.8318 -0.160731 30.8741 -0.160731 31.5171 0.482194C32.16 1.12512 32.16 2.16746 31.5171 2.81079L2.8108 31.517C2.48813 31.8377 2.06661 32 1.64549 32V32Z" fill="white"/>
<path d="M30.3542 32C29.9327 32 29.5115 31.8397 29.1909 31.517L0.482195 2.81079C-0.160732 2.16746 -0.160732 1.12512 0.482195 0.482194C1.12512 -0.160731 2.16747 -0.160731 2.8108 0.482194L31.5171 29.1888C32.16 29.8317 32.16 30.8741 31.5171 31.517C31.1944 31.8377 30.7733 32 30.3542 32Z" fill="white"/>
</svg>
