<svg width="19" height="19" viewBox="0 0 20 20" fill="none" xmlns="http://www.w3.org/2000/svg">
<g fill="#333">
  <path d="M18.7305 13.25C18.5703 13.25 18.4375 13.3828 18.4375 13.543V18.5352C18.4375 19.0195 18.043 19.4141 17.5586 19.4141H6.21484C6.05469 19.4141 5.92188 19.5469 5.92188 19.707C5.92188 19.8672 6.05469 20 6.21484 20H17.5586C18.3672 20 19.0234 19.3438 19.0234 18.5352V13.543C19.0234 13.3789 18.8906 13.25 18.7305 13.25Z" />
  <path d="M17.5586 1.95312H16.2891V0.683594C16.2891 0.308594 15.9805 0 15.6055 0H14.4336C14.0586 0 13.75 0.308594 13.75 0.683594V1.95312H6.25V0.683594C6.25 0.308594 5.94141 0 5.56641 0H4.39453C4.01953 0 3.71094 0.308594 3.71094 0.683594V1.95312H2.44141C1.63281 1.95312 0.976562 2.60938 0.976562 3.41797V18.5352C0.976562 19.3438 1.63281 20 2.44141 20H6.26953C6.42969 20 6.5625 19.8672 6.5625 19.707C6.5625 19.5469 6.42969 19.4141 6.26953 19.4141H2.44141C1.95703 19.4141 1.5625 19.0195 1.5625 18.5352V6.44531H12.7148C12.875 6.44531 13.0078 6.3125 13.0078 6.15234C13.0078 5.99219 12.875 5.85938 12.7148 5.85938H1.5625V3.41797C1.5625 2.93359 1.95703 2.53906 2.44141 2.53906H3.71094V3.80859C3.71094 4.18359 4.01953 4.49219 4.39453 4.49219H5.56641C5.94141 4.49219 6.25 4.18359 6.25 3.80859V2.53906H13.75V3.80859C13.75 4.18359 14.0586 4.49219 14.4336 4.49219H15.6055C15.9805 4.49219 16.2891 4.18359 16.2891 3.80859V2.53906H17.5586C18.043 2.53906 18.4375 2.93359 18.4375 3.41797V5.85938H12.6016C12.4414 5.85938 12.3086 5.99219 12.3086 6.15234C12.3086 6.3125 12.4414 6.44531 12.6016 6.44531H18.4375V13.75C18.4375 13.9102 18.5703 14.043 18.7305 14.043C18.8906 14.043 19.0234 13.9102 19.0234 13.75V3.41797C19.0234 2.60938 18.3672 1.95312 17.5586 1.95312ZM5.66406 3.80859C5.66406 3.86328 5.62109 3.90625 5.56641 3.90625H4.39453C4.33984 3.90625 4.29688 3.86328 4.29688 3.80859V0.683594C4.29688 0.628906 4.33984 0.585938 4.39453 0.585938H5.56641C5.62109 0.585938 5.66406 0.628906 5.66406 0.683594V3.80859ZM15.7031 3.80859C15.7031 3.86328 15.6602 3.90625 15.6055 3.90625H14.4336C14.3789 3.90625 14.3359 3.86328 14.3359 3.80859V0.683594C14.3359 0.628906 14.3789 0.585938 14.4336 0.585938H15.6055C15.6602 0.585938 15.7031 0.628906 15.7031 0.683594V3.80859Z"/>
  <path d="M13.0273 17.7227H15.7148C16.043 17.7227 16.3047 17.457 16.3047 17.1328V14.4453V11.457V8.76953C16.3047 8.44141 16.0391 8.17969 15.7148 8.17969H13.0273H10H6.97266H4.28516C3.95703 8.17969 3.69531 8.44531 3.69531 8.76953V11.457V14.4453V17.1328C3.69531 17.4609 3.96094 17.7227 4.28516 17.7227H6.97266H10H13.0273ZM4.27734 11.75H6.67969V14.1523H4.27734V11.75ZM7.26563 11.75H9.70703V14.1523H7.26563V11.75ZM15.7227 14.1484H13.3203V11.7461H15.7227V14.1484ZM12.7344 14.1484H10.293V11.7461H12.7344V14.1484ZM10.293 14.7344H12.7344V17.1367H10.293V14.7344ZM15.7227 17.1289C15.7227 17.1328 15.7188 17.1328 15.7188 17.1328H13.3203V14.7305H15.7227V17.1289ZM15.7227 8.76953V11.1641H13.3203V8.76172H15.7148C15.7188 8.76172 15.7227 8.76563 15.7227 8.76953ZM12.7344 11.1641H10.293V8.76172H12.7344V11.1641ZM9.70703 11.1641H7.26563V8.76172H9.70703V11.1641ZM4.27734 8.76953C4.27734 8.76563 4.28125 8.76562 4.28125 8.76562H6.67969V11.168H4.27734V8.76953ZM4.27734 17.1289V14.7344H6.67969V17.1367H4.28516C4.28125 17.1367 4.27734 17.1328 4.27734 17.1289ZM7.26563 14.7344H9.70703V17.1367H7.26563V14.7344Z"/>
</g>
</svg>
