<svg width="144" height="144" viewBox="0 0 144 144" fill="none" xmlns="http://www.w3.org/2000/svg">
<path d="M142.244 37.833H1.75586V128.504H142.244V37.833Z" fill="white"/>
<path d="M142.244 130.001H136.976V127.007H140.488V124.014H144V128.504C144 129.312 143.227 130.001 142.244 130.001Z" fill="#76767A"/>
<path d="M126.966 130H116.956V127.007H126.966V130ZM106.981 130H96.9717V127.007H106.981V130ZM86.9971 130H76.9873V127.007H86.9971V130ZM67.0127 130H57.003V127.007H67.0127V130ZM46.9932 130H36.9834V127.007H46.9932V130ZM27.0088 130H17.0342V127.007H27.0439V130H27.0088Z" fill="#76767A"/>
<path d="M7.02439 130.001H1.7561C0.772683 130.001 0 129.342 0 128.504V124.014H3.5122V127.007H7.02439V130.001Z" fill="#76767A"/>
<path d="M3.5122 114.943H0V105.873H3.5122V114.943ZM3.5122 96.773H0V87.7029H3.5122V96.773ZM3.5122 78.6328H0V69.5627H3.5122V78.6328ZM3.5122 60.4627H0V51.3926H3.5122V60.4627Z" fill="#76767A"/>
<path d="M3.5122 42.3228H0V37.8327C0 36.9945 0.772683 36.3359 1.7561 36.3359H7.02439V39.3294H3.5122V42.3228Z" fill="#76767A"/>
<path d="M126.966 39.3294H116.956V36.3359H126.966V39.3294ZM106.981 39.3294H96.9717V36.3359H106.981V39.3294ZM86.9971 39.3294H76.9873V36.3359H86.9971V39.3294ZM67.0127 39.3294H57.003V36.3359H67.0127V39.3294ZM46.9932 39.3294H36.9834V36.3359H46.9932V39.3294ZM27.0088 39.3294H17.0342V36.3359H27.0439V39.3294H27.0088Z" fill="#76767A"/>
<path d="M144 42.3228H140.488V39.3294H136.976V36.3359H142.244C143.227 36.3359 144 36.9945 144 37.8327V42.3228Z" fill="#76767A"/>
<path d="M144 114.943H140.488V105.873H144V114.943ZM144 96.773H140.488V87.7029H144V96.773ZM144 78.6328H140.488V69.5627H144V78.6328ZM144 60.4627H140.488V51.3926H144V60.4627Z" fill="#76767A"/>
<path d="M99.6008 27.957L99.361 27.7505C99.0869 27.6129 98.8128 27.4753 98.436 27.4753H82.2993C81.4085 27.4753 80.6891 26.7527 80.6891 25.8581V9.6172C80.6891 9.27312 80.5863 8.96344 80.415 8.72258L80.2094 8.48172C79.9011 8.17204 79.49 8 79.0446 8H46.737C44.0305 8 41.8721 10.1677 41.8721 12.886V81.0839C41.8721 83.7677 44.0305 85.9355 46.737 85.9355H95.2155C97.9221 85.9355 100.08 83.7677 100.08 81.0839V29.1269C100.08 28.6796 99.9092 28.2667 99.6008 27.957ZM96.86 81.0839C96.86 81.9785 96.1405 82.7011 95.2155 82.7011H46.737C45.8463 82.7011 45.0925 81.9785 45.0925 81.0839V12.886C45.0925 11.9914 45.8463 11.2344 46.737 11.2344H77.4686V25.8581C77.4686 28.5419 79.627 30.7097 82.2993 30.7097H96.86V81.0839Z" fill="#76767A"/>
<path d="M96.8602 30.7096V81.0494C96.8602 81.9441 96.1407 82.6666 95.2157 82.6666H46.7373C45.8465 82.6666 45.0928 81.9441 45.0928 81.0494V12.886C45.0928 11.9914 45.8465 11.2344 46.7373 11.2344H77.4688V25.858C77.4688 28.5419 79.6272 30.7096 82.2995 30.7096H96.8602Z" fill="white"/>
<path d="M99.6007 27.9574L80.2094 8.48209C79.5927 7.86274 78.5649 7.86274 77.9139 8.48209C77.263 9.10145 77.2972 10.1337 77.9139 10.7875L97.3053 30.2627C97.6136 30.5724 98.0248 30.7445 98.4359 30.7445C98.847 30.7445 99.2581 30.5724 99.5665 30.2627C100.252 29.609 100.252 28.5767 99.6007 27.9574Z" fill="#76767A"/>
<path d="M111.953 107L97.8843 93.6297C97.4628 93.2041 96.8305 93.0288 96.2509 93.129C95.6449 93.2291 95.1444 93.5797 94.8546 94.1055L90.8237 102.017L85.2648 86.6442C85.2384 86.569 85.2384 86.519 85.1858 86.4689L80.6807 74L110.161 83.6396L101.836 87.4954C101.283 87.7458 100.888 88.2215 100.782 88.7974C100.677 89.3733 100.888 89.9492 101.309 90.3498L115.404 103.72L111.953 107Z" fill="white"/>
<path d="M111.902 108C111.639 108 111.376 107.9 111.166 107.699L97.1235 94.3143C96.9394 94.1137 96.6764 94.0385 96.4135 94.0887C96.1505 94.1388 95.9138 94.2892 95.7823 94.5398L91.759 102.461C91.5749 102.837 91.1804 103.012 90.7597 103.037C90.339 103.012 89.9708 102.736 89.8393 102.36L79.7151 74.312C79.5837 73.9611 79.6889 73.5601 79.9781 73.2843C80.2674 73.0086 80.6881 72.9334 81.0563 73.0587L110.482 82.709C110.877 82.8343 111.166 83.1852 111.192 83.5862C111.218 83.9873 110.982 84.3633 110.614 84.5387L102.304 88.3988C102.041 88.5241 101.883 88.7247 101.831 88.9753C101.778 89.226 101.883 89.5017 102.067 89.6771L116.11 103.062C116.32 103.263 116.425 103.513 116.425 103.764C116.425 104.04 116.32 104.29 116.11 104.466L112.665 107.724C112.428 107.925 112.165 108 111.902 108ZM96.5186 92.1085C97.3075 92.1085 98.0438 92.4093 98.5961 92.9357L111.902 105.594L113.848 103.739L100.516 91.0558C99.8583 90.404 99.5428 89.4766 99.7005 88.6244C99.8583 87.722 100.489 86.945 101.357 86.569L107.353 83.7868L82.3711 75.5904L86.1841 86.1429C86.1841 86.168 86.263 86.3685 86.2893 86.3936L90.9964 99.4025L93.9153 93.6626C94.336 92.8605 95.1512 92.284 96.0716 92.1336C96.2031 92.1085 96.3609 92.1085 96.5186 92.1085Z" fill="#76767A"/>
</svg>
