<svg width="23" height="23" viewBox="0 0 24 24" fill="none" xmlns="http://www.w3.org/2000/svg">
<path d="M10.5938 2.25C10.1016 2.25 9.75 2.63672 9.75 3.09375V9H6.65625C6.02344 9 5.70703 9.77344 6.16406 10.2305L11.5078 15.5742C11.7539 15.8203 12.2109 15.8203 12.457 15.5742L17.8008 10.2305C18.2578 9.77344 17.9414 9 17.3086 9H14.25V3.09375C14.25 2.63672 13.8633 2.25 13.4062 2.25H10.5938ZM21 15.4688C21 15.0117 20.6133 14.625 20.1562 14.625H14.9883L13.2656 16.3477C12.5625 17.0859 11.4023 17.0859 10.6992 16.3477L8.97656 14.625H3.84375C3.35156 14.625 3 15.0117 3 15.4688V19.4062C3 19.8984 3.35156 20.25 3.84375 20.25H20.1562C20.6133 20.25 21 19.8984 21 19.4062V15.4688ZM16.6406 18.5625C16.6406 18.9492 16.3242 19.2656 15.9375 19.2656C15.5508 19.2656 15.2344 18.9492 15.2344 18.5625C15.2344 18.1758 15.5508 17.8594 15.9375 17.8594C16.3242 17.8594 16.6406 18.1758 16.6406 18.5625ZM18.8906 18.5625C18.8906 18.9492 18.5742 19.2656 18.1875 19.2656C17.8008 19.2656 17.4844 18.9492 17.4844 18.5625C17.4844 18.1758 17.8008 17.8594 18.1875 17.8594C18.5742 17.8594 18.8906 18.1758 18.8906 18.5625Z" fill="#0050B2"/>
</svg>
