<svg width="23" height="22" viewBox="0 0 23 22" fill="none" xmlns="http://www.w3.org/2000/svg">
<circle cx="11.5557" cy="11" r="11" fill="#E31E24"/>
<path d="M6.32972 16.8238C6.17671 16.8238 6.0237 16.7655 5.90745 16.648C5.67408 16.414 5.67408 16.0346 5.90745 15.8006L16.3277 5.35202C16.5611 5.11801 16.9394 5.11801 17.1728 5.35202C17.4062 5.58603 17.4062 5.96542 17.1728 6.19958L6.75271 16.648C6.63559 16.7648 6.48258 16.8238 6.32972 16.8238Z" fill="white"/>
<path d="M16.7507 16.8238C16.5977 16.8238 16.4448 16.7655 16.3284 16.648L5.90745 6.19958C5.67408 5.96542 5.67408 5.58603 5.90745 5.35202C6.14083 5.11801 6.51919 5.11801 6.75271 5.35202L17.1728 15.8006C17.4062 16.0346 17.4062 16.414 17.1728 16.648C17.0557 16.7648 16.9028 16.8238 16.7507 16.8238Z" fill="white"/>
</svg>
