<svg width="30" height="30" viewBox="0 0 32 32" fill="none" xmlns="http://www.w3.org/2000/svg">
<path d="M17.3335 8.00024C17.3335 8.73657 16.7366 9.3335 16.0002 9.3335C15.2639 9.3335 14.667 8.73657 14.667 8.00024C14.667 7.26392 15.2639 6.66699 16.0002 6.66699C16.7366 6.66699 17.3335 7.26392 17.3335 8.00024Z" fill="#FF9500"/>
<path d="M16.0002 25.3333C15.4482 25.3333 15.0002 24.8853 15.0002 24.3333V14H13.667C13.115 14 12.667 13.552 12.667 13C12.667 12.448 13.115 12 13.667 12H16.0002C16.5522 12 17.0002 12.448 17.0002 13V24.3333C17.0002 24.8853 16.5522 25.3333 16.0002 25.3333Z" fill="#FF9500"/>
<path d="M16 32C7.17725 32 0 24.8228 0 16C0 7.17725 7.17725 0 16 0C24.8228 0 32 7.17725 32 16C32 24.8228 24.8228 32 16 32ZM16 2C8.28003 2 2 8.28003 2 16C2 23.72 8.28003 30 16 30C23.72 30 30 23.72 30 16C30 8.28003 23.72 2 16 2Z" fill="#FF9500"/>
<path d="M19 25.333H13C12.448 25.333 12 24.885 12 24.333C12 23.781 12.448 23.333 13 23.333H19C19.552 23.333 20 23.781 20 24.333C20 24.885 19.552 25.333 19 25.333Z" fill="#FF9500"/>
</svg>
