<svg width="31" height="31" viewBox="0 0 32 32" fill="none" xmlns="http://www.w3.org/2000/svg">
<path d="M30.2084 14.2118H29.4471V9.63755C29.4471 7.76717 27.9245 6.25117 26.0607 6.25117H25.3585L25.3651 4.55142C25.3651 3.29137 24.3413 2.26758 23.0812 2.26758H2.77605C1.26005 2.26758 0.0196883 3.48825 0 5.00425C0 5.01737 0 5.0305 0 5.04362V27.4489C0 28.7089 1.02379 29.7327 2.28384 29.7327H26.0673C27.9377 29.7327 29.4536 28.2102 29.4536 26.3463V21.7655H30.2149C31.1993 21.7655 32 20.9649 32 19.9805V15.9969C31.9934 15.0125 31.1928 14.2118 30.2084 14.2118ZM2.77605 3.84264H23.0812C23.4684 3.84264 23.79 4.15765 23.79 4.54485L23.7834 6.25117H2.77605C2.11321 6.25117 1.57506 5.71303 1.57506 5.05019C1.57506 4.38735 2.11321 3.84264 2.77605 3.84264ZM27.872 26.3398C27.872 27.3373 27.0582 28.1511 26.0607 28.1511H2.27728C1.89007 28.1511 1.5685 27.8361 1.5685 27.4423V7.5506C1.93601 7.72779 2.3429 7.82623 2.77605 7.82623H26.0607C27.0582 7.82623 27.872 8.64002 27.872 9.63755V14.2118H22.4971C21.5127 14.2118 20.7121 15.0125 20.7121 15.9969V19.9805C20.7121 20.9649 21.5127 21.7655 22.4971 21.7655H27.872V26.3398ZM30.4184 19.9805C30.4184 20.0986 30.3265 20.1905 30.2084 20.1905H22.5037C22.3856 20.1905 22.2937 20.0986 22.2937 19.9805V15.9969C22.2937 15.8853 22.3856 15.7869 22.5037 15.7869H30.2084C30.3199 15.7869 30.4184 15.8787 30.4184 15.9969V19.9805Z" fill="#26A669"/>
</svg>
