<svg xmlns="http://www.w3.org/2000/svg" xml:space="preserve" width="243.059mm" height="95.4916mm" version="1.1" style="shape-rendering:geometricPrecision; text-rendering:geometricPrecision; image-rendering:optimizeQuality; fill-rule:evenodd; clip-rule:evenodd"
viewBox="0 0 25460.99 10002.98"
 xmlns:xlink="http://www.w3.org/1999/xlink">
 <defs>
  <style type="text/css">
   <![CDATA[
    .fil0 {fill:#E31E24}
    .fil1 {fill:#FDFDFD}
    .fil2 {fill:#2B2A29;fill-rule:nonzero}
    .fil3 {fill:#2B2A29;fill-rule:nonzero}
   ]]>
  </style>
 </defs>
 <g id="Слой_x0020_1">
  <metadata id="CorelCorpID_0Corel-Layer"/>
  <g id="_2578812438464">
   <path class="fil0" d="M6958.38 5656.6l432.18 -1.59 3.02 3031.07c-85.48,28.2 -336.95,18.49 -434.84,7.84l-0.36 -3037.31zm-5641.82 1711.18c-113.67,-895.12 550.69,-1610.21 1319.86,-1702.53 897.76,-107.77 1612.65,548.71 1702,1327.03 102.89,896.48 -552.81,1606.52 -1331.46,1695.53 -897.68,102.64 -1592.78,-551.29 -1690.4,-1320.03zm1292.76 -6050.88c85.57,-28.2 337.03,-18.49 434.93,-7.83l0.35 3037.32 -432.23 1.58 -3.05 -3031.08zm6077.94 1694.75c-105.23,783.62 -800.94,1444.61 -1713.57,1324.07 -767.8,-101.41 -1426.22,-809.2 -1306.32,-1715.36 100.85,-762.1 815.96,-1423.68 1707.76,-1303.18 758.71,102.51 1432.18,800.56 1312.13,1694.48zm-8687.26 -1810.57l0 7600.82c0,216.82 29.37,449.2 116.31,618.7 21.37,41.63 41.71,65.9 61.81,99.51 94.05,157.24 303.86,329.86 492.18,404.14 137.78,54.36 345.16,78.73 530.78,78.73l7600.82 0c188.43,0 378.19,-22.06 517.5,-74.09 267.14,-99.75 501.19,-333.35 604.85,-596.21 54.36,-137.77 78.73,-345.16 78.73,-530.78l0 -7600.82c0,-188.42 -22.07,-378.19 -74.09,-517.5 -47.82,-128.11 -43.56,-99.63 -104.02,-200.71 -49.75,-83.18 -73.02,-97.63 -140.06,-164.69 -115.4,-115.37 -183.96,-173.13 -352.13,-239.45 -137.77,-54.35 -345.16,-78.73 -530.78,-78.73l-7600.82 0c-742.98,0 -1201.08,414.85 -1201.08,1201.08z"/>
   <path class="fil0" d="M8255.39 2957.87c83.93,-635.2 -392.19,-1134.68 -936.48,-1208.94 -636.06,-86.78 -1145.64,384.88 -1219.84,927.13 -88.61,647.48 381.2,1153.41 929.7,1227.96 652.55,88.68 1153,-388.89 1226.62,-946.16z"/>
   <path class="fil0" d="M2664.25 6101.72c-542.19,86.13 -1010.08,588.1 -912.56,1235.52 81.41,540.48 584.86,1008.7 1229.87,915.11 545.77,-79.2 1017.71,-585.85 920.4,-1238.53 -80.24,-538.34 -593.05,-1014.51 -1237.7,-912.1z"/>
   <path class="fil1" d="M8255.39 2957.87c-73.62,557.26 -574.08,1034.84 -1226.62,946.16 -548.49,-74.55 -1018.31,-580.49 -929.7,-1227.96 74.21,-542.25 583.79,-1013.91 1219.84,-927.13 544.28,74.26 1020.4,573.74 936.48,1208.94zm431.87 53.79c120.05,-893.92 -553.42,-1591.97 -1312.13,-1694.48 -891.8,-120.5 -1606.91,541.09 -1707.76,1303.18 -119.9,906.16 538.51,1613.95 1306.32,1715.36 912.64,120.54 1608.34,-540.45 1713.57,-1324.07z"/>
   <path class="fil1" d="M2664.25 6101.72c644.66,-102.41 1157.46,373.76 1237.7,912.1 97.32,652.68 -374.63,1159.33 -920.4,1238.53 -645,93.6 -1148.45,-374.63 -1229.87,-915.11 -97.51,-647.42 370.37,-1149.4 912.56,-1235.52zm-1347.69 1266.07c97.62,768.74 792.73,1422.66 1690.4,1320.03 778.65,-89.02 1434.34,-799.05 1331.46,-1695.53 -89.34,-778.31 -804.24,-1434.8 -1702,-1327.03 -769.17,92.32 -1433.53,807.41 -1319.86,1702.53z"/>
   <path class="fil1" d="M2612.37 4347.98l432.23 -1.58 -0.35 -3037.32c-97.9,-10.66 -349.36,-20.37 -434.93,7.83l3.05 3031.08z"/>
   <path class="fil1" d="M6958.74 8693.91c97.89,10.65 349.36,20.36 434.84,-7.84l-3.02 -3031.07 -432.18 1.59 0.36 3037.31z"/>
   <path class="fil2" d="M12345.98 9331.26l0 -2508.48c0,-49.67 40.28,-89.96 89.95,-89.96l766.34 0 0 -351.54 -766.34 0c-49.67,0 -89.95,-40.28 -89.95,-89.95l0.2 -5.99c-1.94,-121.52 17.36,-218.69 48.11,-295.57 42.5,-106.26 106.72,-174.75 168.91,-216.21l5.73 -3.53c73.72,-47.53 165.73,-74.49 286.81,-89.12 94.9,-11.48 208.28,-15.57 346.52,-16.65l0 -330.53c-187.58,-1.98 -418.25,9.38 -631.54,54.71 -172.8,36.72 -332.66,95.34 -444.02,186.64 -96.95,79.73 -162.38,182.99 -206.22,289.84 -63.85,155.55 -82.35,318.86 -85.78,432.29l0.27 0 0 3034.04 511 0zm179.91 -2418.52l0 2508.47c0,49.67 -40.29,89.96 -89.96,89.96l-690.92 0c-49.67,0 -89.95,-40.29 -89.95,-89.96l0 -3123.99 0.32 0 0.02 -2.46c3.68,-128.97 24.81,-316.7 99.22,-498.01 53.86,-131.3 135.54,-259.2 258.21,-360.09 136.7,-112.09 322.96,-181.89 520.64,-223.91 260.6,-55.39 543.84,-63.17 754.17,-56.56l4.57 -0.12c49.67,0 89.96,40.29 89.96,89.95l0 507.88c0,49.67 -40.29,89.96 -89.96,89.96 -174.28,0 -310.16,2.84 -415.38,15.55 -93.12,11.25 -160.78,29.8 -209.82,60.98l-4.03 2.85c-36.83,24.55 -75.4,66.42 -102.14,133.3 -15.79,39.48 -27.47,87.28 -32.63,144.83l764 0c49.67,0 89.96,40.29 89.96,89.96l0 531.45c0,49.67 -40.29,89.96 -89.96,89.96l-766.33 0zm1488.7 2418.52l511.01 0 0 -3953.91 -511.01 0 0 3953.91zm600.98 179.91l-690.93 0c-49.67,0 -89.96,-40.29 -89.96,-89.96l0 -4133.83c0,-49.67 40.29,-89.96 89.96,-89.96l690.93 0c49.67,0 89.96,40.29 89.96,89.96l0 4133.83c0,49.67 -40.29,89.96 -89.96,89.96zm1059.01 -3129.89l0 351.54 1451.35 0c60.44,0 130.06,5.32 200.51,28.22 73.64,23.95 145.74,66.62 205.55,141.13l0.14 -0.1c47.81,58.84 75.24,120.77 90.64,182.4 14.81,59.32 18.31,116.39 18.31,169.44l0 218.5c0,49.67 -40.29,89.95 -89.96,89.95l-1358.26 0c-77.59,0 -165.81,2.66 -253.89,24.51 -85.75,21.28 -174.76,61.27 -259.9,136.07 -103.29,90.4 -161.54,196.77 -194.02,311.09 -33.96,119.57 -40.77,250.99 -40.77,383.23 0,110.9 4.17,262.61 38.13,409.6 32.4,140.23 92.04,278.11 201.86,372.63l1.98 1.74c74.32,63.83 158.54,96.16 242.6,112.59 89.17,17.42 182.25,17.44 264.02,17.44l1494.1 0c69.2,0 143.18,-2.6 209.16,-17.46 59.91,-13.5 115.65,-37.51 158.33,-80.2 42.56,-42.56 66.62,-99.69 80.2,-157.56 14.89,-63.4 17.49,-129.12 17.49,-180.42l0 -1624.01c0,-155.69 -20.92,-290.37 -55.73,-401.99 -37.43,-119.93 -90.29,-212.29 -149.64,-274.35l-0.25 -0.27c-62.37,-64.74 -147.94,-118.1 -247.99,-155.38 -100.3,-37.37 -215.22,-58.35 -336.38,-58.35l-1687.55 0zm-179.92 441.5l0 -531.45c0,-49.67 40.29,-89.96 89.96,-89.96l1777.51 0c141.7,0 278.09,25.28 398.93,70.3 125.12,46.61 233.54,114.76 314.28,198.45l1.41 1.46c77.49,81.03 145.17,197.34 191.12,344.65 40.09,128.51 64.16,281.31 64.16,455.39l0 1624.01c0,60.9 -3.33,139.91 -22.41,221.17 -20.36,86.78 -58.36,174.38 -128,244.01 -69.51,69.51 -155.55,107.55 -246.19,127.98 -84.58,19.06 -170.1,22.39 -248.5,22.39l-1494.1 0c-89.46,0 -191.3,-0.01 -298.44,-20.95 -110.83,-21.66 -223.07,-65.34 -324.94,-152.84l-1.88 -1.56c-144.06,-123.97 -220.27,-296.18 -260.18,-468.89 -38.36,-165.95 -43.06,-330.25 -43.06,-449.66 0,-145.34 7.98,-291.51 47.8,-431.71 41.34,-145.45 115.96,-281.23 248.85,-397.54 109.76,-96.46 224.54,-148.02 335.1,-175.45 108.29,-26.86 209.07,-30.13 296.75,-30.13l1268.31 0 0 -128.54c0,-41.43 -2.43,-84.78 -12.69,-125.87 -9.69,-38.73 -26.54,-77.19 -55.5,-112.82l0.14 -0.1 -0.48 -0.6c-34.56,-43.19 -77.44,-68.31 -121.71,-82.69 -47.63,-15.48 -99.12,-19.08 -144.99,-19.08l-1541.31 0c-49.67,0 -89.96,-40.29 -89.96,-89.96zm2146.41 1181.12l0 720.49c0,68.78 -0.01,128.94 -78.13,197.36 -2.66,2.33 -5.42,4.45 -8.25,6.42 -36.44,26.44 -76.86,39.45 -115.36,45.69l-3.32 0.47c-34.64,5.36 -63.26,5.36 -85.65,5.36l-962.6 0c-53.12,0 -106.05,-13 -153.51,-32.99 -53.94,-22.71 -101.45,-55.22 -134.14,-87.87l-2.41 -2.5c-54.16,-57.94 -84.24,-136.78 -100.45,-215.18 -15.01,-72.54 -18.36,-143.39 -18.36,-194.35 0,-121.97 15.21,-207.86 33.76,-267.75 20.19,-65.16 45.42,-102.72 61.68,-123.34 52.12,-68.16 120.94,-103.86 184.4,-122.41 59.94,-17.51 112.81,-19.38 140.83,-19.38l1151.57 0c49.67,0 89.96,40.29 89.96,89.96zm-179.91 720.49l0 -630.53 -1061.61 0c-19.21,0 -54.93,1.11 -90.94,11.64 -32.43,9.48 -67.01,26.96 -91.64,59.16l-1.4 1.76c-7.45,9.29 -19.76,27.57 -31.45,65.34 -13.92,44.92 -25.32,112.64 -25.32,215.05 0,43.51 2.58,102.64 14.13,158.51 10.28,49.67 27.35,97.58 55.59,128.19 18.09,17.5 44.56,35.1 75.3,48.05 26.21,11.04 55.2,18.23 83.93,18.23l962.6 0c17.46,0 39.7,-0.01 57.88,-2.62l2.29 -0.4c13.61,-2.22 26.81,-5.86 36.61,-12.08 14.01,-14.32 14.03,-35.86 14.03,-60.31zm1650.91 606.87l1912.03 0c69.94,0 150.42,-2.65 228.62,-18.56l3.19 -0.59c74.49,-15.44 149.74,-43.2 216.73,-92.82l1.32 -0.94c56.03,-45.85 118.02,-119.05 162.29,-232.75 35.75,-91.85 59.68,-210.07 59.68,-361.63 0,-79.19 -6.73,-171.64 -31.54,-262.87 -23.93,-87.96 -64.82,-175.39 -133.19,-248.83 -67.47,-72.65 -159.32,-128.14 -276.91,-177.86 -123.06,-52.03 -277.33,-98.52 -461.51,-151.14 -219.67,-67.84 -450.97,-126.88 -673.19,-189.1 -42.35,-12 -119.7,-34.75 -199.01,-64.02 -83.03,-30.62 -168.43,-68.97 -222.05,-111.88l-0.61 -0.48 -0.1 0.13c-62.13,-50.48 -95.69,-102.63 -114.07,-157.7l-1.5 -4.98c-16.33,-51.35 -18.17,-98.92 -18.17,-148.98 0,-48.47 1.95,-95.94 17.49,-145.55 16.93,-54 48.05,-104.33 105.5,-149.49l5.76 -4.18c50.38,-37.38 103.01,-56.14 155,-65.43 49.19,-8.77 94.7,-8.79 136.88,-8.79l1569.5 0 0 -351.54 -1675.77 0c-127.34,0 -262.46,4.04 -382.46,37.07 -113.16,31.14 -217.08,89.14 -294.84,196.99l-0.17 0.23 0.17 0.13c-54.19,74.82 -86.62,158.1 -105.53,239.67 -19.45,83.94 -24.84,167.42 -24.84,239.08 0,71.66 5.38,155.15 24.84,239.08 18.91,81.57 51.33,164.85 105.53,239.69 53.9,74.43 132.45,138.16 234.8,193.62 107.96,58.51 241.87,107.71 400.7,150.26l6.98 2.18 595.34 163.4 0.06 -0.23c219.92,59.44 352.63,100.29 437.71,132 94.17,35.1 134.29,61.22 165.03,88.11l1.68 1.5c51.39,47.3 81.16,99.04 98.13,152.97 15.97,50.7 19.74,100.41 19.74,149.25 0,59.72 0,164.35 -82.51,255.14 -44.6,51.76 -98.5,81.67 -153.12,98.55 -51.62,15.97 -101.59,19.74 -143.74,19.74l-1669.86 0 0 351.56zm1912.03 179.91l-2001.99 0c-49.67,0 -89.95,-40.29 -89.95,-89.96l0 -531.46c0,-49.67 40.28,-89.96 89.95,-89.96l1759.82 0c28.73,0 61.49,-2.16 91.04,-11.3 25.21,-7.78 49.79,-21.2 69.52,-43.89l3.36 -3.91c35.52,-39.05 35.53,-99.77 35.53,-134.41 0,-33.82 -2.17,-66.83 -11.3,-95.85 -8.11,-25.79 -22.71,-50.86 -48.15,-74.35 -16.41,-14.03 -41.87,-29.1 -107.75,-53.66 -77.3,-28.8 -204.47,-67.7 -421.55,-126.37l0.07 -0.25 -596.6 -163.74 -5.85 -1.35c-171.83,-46.03 -318.5,-100.24 -439.35,-165.73 -126.47,-68.53 -225.16,-149.52 -295.23,-246.34 -69.8,-96.37 -111.22,-202.13 -135.07,-305.06 -23.31,-100.56 -29.75,-197.24 -29.75,-279.12 0,-81.87 6.44,-178.55 29.75,-279.12 23.85,-102.93 65.27,-208.68 135.07,-305.04l0.17 0.12c105.32,-145.96 243.51,-223.77 393.04,-264.93 142.79,-39.29 291.15,-44.1 429.55,-44.1l1765.73 0c49.67,0 89.95,40.29 89.95,89.96l0 531.45c0,49.67 -40.28,89.96 -89.95,89.96l-1659.46 0c-34.56,0 -71.82,0.01 -105.27,5.97 -27.7,4.93 -54.81,14.17 -78.85,31.7l-2.49 2.05c-25.19,19.81 -38.38,40.38 -45.05,61.66 -8.04,25.69 -9.06,57.98 -9.06,92.14 0,35.52 0.91,68.11 8.8,94.14l1.03 2.89c8.21,24.61 24.85,49.24 57.15,75.5l-0.1 0.13c35.15,27.84 102.94,57.27 171.57,82.58 72.72,26.84 146.04,48.39 186.31,59.9l673.22 189c187.88,53.66 346.66,101.68 481.9,158.87 140.77,59.52 252.68,128.07 338.73,220.72 91.06,97.8 144.69,211.22 175.39,324.03 29.8,109.55 37.86,217.93 37.86,309.95 0,174.96 -28.99,314.97 -72.32,426.29 -57.57,147.86 -140.9,245.12 -216.79,307.09 -2.3,2.1 -4.72,4.1 -7.28,6 -90.37,66.95 -189.84,103.99 -287.4,124.25l-3.51 0.8c-95.98,19.52 -186.85,22.77 -264.46,22.77zm1590.47 -179.91l511.01 0 0 -2508.48c0,-49.67 40.29,-89.96 89.96,-89.96l809.08 0c72.89,0 167.05,3.35 267.86,30.83 103.89,28.33 210.69,81.91 300.82,182.47l0.16 0.18 0.19 -0.18c82.84,93.21 127.21,209.76 150.68,321.27 22.51,106.93 25.74,207.27 25.74,275.89l0 1787.99 511.01 0 0 -1971.04c0,-183.07 -31.13,-334.08 -79.81,-456.22 -57.72,-144.83 -140.24,-249.65 -224.12,-319.06l-3.47 -3.03c-99.77,-80.07 -218.73,-129.69 -352.03,-159.54 -139.97,-31.32 -297.9,-41.09 -467.13,-41.09l-938.97 0c-49.67,0 -89.96,-40.28 -89.96,-89.95l0 -913.99 -511.01 0 0 3953.91zm600.98 179.91l-690.93 0c-49.67,0 -89.96,-40.29 -89.96,-89.96l0 -4133.83c0,-49.67 40.29,-89.96 89.96,-89.96l690.93 0c49.67,0 89.95,40.29 89.95,89.96l0 913.99 849.02 0c179.17,0 349.04,10.94 505.78,46.02 159.55,35.71 303.33,96.28 426.14,195.08l5.26 4.03c103.94,86 205.73,214.81 276.13,391.43 56.84,142.57 93.18,315.94 93.18,522.29l0 2061c0,49.67 -40.29,89.96 -89.96,89.96l-690.93 0c-49.67,0 -89.96,-40.29 -89.96,-89.96l0 -1877.94c0,-61.25 -2.69,-149.94 -21.53,-239.35 -17.85,-84.86 -50.3,-172.1 -109.18,-238.33l0.19 -0.17c-63.31,-70.57 -139.57,-108.52 -214.22,-128.89 -77.81,-21.21 -157.91,-23.79 -220.79,-23.79l-719.13 0 0 2508.47c0,49.67 -40.28,89.96 -89.95,89.96z"/>
   <path class="fil3" d="M12435.93 9421.21l0 -2598.43 856.29 0 0 -531.45 -856.29 0c-5.9,-253.98 88.57,-383.88 177.17,-442.94 124,-82.64 324.82,-94.49 679.12,-94.49l0 -507.88c-354.3,-11.81 -927.19,17.76 -1222.45,259.84 -265.7,218.52 -318.86,584.64 -324.75,791.35l0 525.56 0 2598.43 690.92 0zm1488.71 0l690.93 0 0 -4133.83 -690.93 0 0 4133.83zm1659.97 -3129.88l0 531.45 1541.31 0c106.31,0 242.12,17.77 336.62,135.85 76.75,94.47 88.56,200.77 88.56,295.27l0 218.5 -1358.26 0c-165.31,0 -377.92,11.81 -572.82,183.08 -236.21,206.7 -265.73,484.21 -265.73,761.78 0,230.33 17.71,631.89 271.62,850.39 177.21,153.56 395.66,153.56 566.92,153.56l1494.1 0c147.63,0 318.89,-11.8 431.09,-124.01 112.21,-112.21 124.05,-289.37 124.05,-401.58l0 -1624.01c0,-348.41 -100.38,-602.33 -230.32,-738.18 -141.72,-147.62 -383.87,-242.1 -649.62,-242.1l-1777.51 0zm1966.49 1712.57l0 720.49c0,47.25 0,88.55 -47.21,129.9 -47.23,35.46 -112.19,35.46 -153.55,35.46l-962.6 0c-88.59,0 -177.15,-47.26 -224.39,-94.51 -82.71,-88.6 -94.52,-253.92 -94.52,-348.43 0,-224.41 53.16,-307.12 76.8,-336.61 76.76,-100.39 206.67,-106.3 253.9,-106.3l1151.57 0zm1471 1417.31l2001.99 0c147.6,0 342.53,-11.8 501.96,-129.89 118.11,-94.51 259.84,-289.38 259.84,-667.35 0,-171.25 -29.54,-401.57 -188.99,-572.84 -153.54,-165.34 -407.47,-248 -779.53,-354.29l-673.21 -189c-82.67,-23.62 -301.16,-88.57 -389.77,-159.48 -94.47,-76.74 -100.36,-153.5 -100.36,-242.09 0,-82.66 5.9,-159.45 88.56,-224.42 76.75,-59.06 165.34,-59.06 242.12,-59.06l1659.46 0 0 -531.45 -1765.73 0c-265.75,0 -566.92,17.68 -750.03,271.65 -124.01,171.23 -147.59,377.91 -147.59,531.46 0,153.56 23.58,360.22 147.59,531.48 124.01,171.27 354.37,289.36 685.04,377.97l602.38 165.34c437.01,118.13 519.68,159.46 566.9,200.78 76.76,70.9 88.62,153.57 88.62,236.26 0,47.21 0,129.9 -59.09,194.85 -64.98,76.77 -159.42,88.62 -230.33,88.62l-1759.82 0 0 531.46zm3502.5 0l690.93 0 0 -2598.43 809.08 0c135.8,0 348.41,11.8 501.92,183.07 141.74,159.46 153.57,407.52 153.57,537.42l0 1877.94 690.93 0 0 -2061c0,-431.12 -165.35,-702.76 -336.62,-844.49 -224.41,-183.06 -531.47,-224.39 -879.9,-224.39l-938.97 0 0 -1003.95 -690.93 0 0 4133.83z"/>
   <path class="fil2" d="M15316.38 1396.38c11.19,-28.78 29.91,-69.41 52.51,-100.03 26.82,-36.32 61.35,-62.22 104.67,-62.22 25.61,0 64.2,6.55 97.03,44.3 23.41,26.93 42.16,70.37 42.16,140.85 0,2.51 -0.13,4.99 -0.36,7.45l-19.83 2699.78 518.6 0 0 -3070.03c0,-130.37 -44.97,-224.51 -121.03,-286.45 -88.76,-72.25 -221.9,-105.87 -378.59,-105.87 -115.49,0 -221.73,11.99 -312.15,67.03 -91.91,55.92 -174.01,158.85 -243.74,342.44 -319.67,789.62 -605.77,1598.41 -925.58,2387.94 -18.29,45.89 -38.94,86.31 -60.27,115.51 -30.51,41.73 -66.96,66.35 -108.83,66.35 -41.87,0 -78.37,-24.61 -108.86,-66.36l-3.53 -5.25c-20.08,-28.75 -39.47,-67.22 -56.77,-110.53l-925.26 -2387.05c-44.87,-115.71 -93.72,-221.33 -174.8,-294.08 -79.5,-71.33 -196.01,-115.99 -381.39,-115.99 -46.74,0 -178.72,1.14 -295.12,53.69 -107.47,48.52 -204.5,145.43 -204.5,338.63l0 3070.03 518.74 0 -14.9 -2707.22 -0.3 0c0,-26.43 0,-185.15 134.05,-185.15 41.43,0 76.3,26.8 103.7,63.86 23.66,32 44.99,75.35 55.75,103.89l914.8 2386.42 1.56 4.51c40.05,103.63 79.27,202.11 142.02,269.19 59.91,64.05 148.38,105.38 294.78,105.38 135.82,0 221.29,-31.83 281.86,-90.85 64.71,-63.06 108.96,-162.01 156.47,-287.93l914.75 -2386.75 2.33 -5.47zm120.53 2807.66l20.13 -2740.71 -912.38 2380.31c-54.74,144.74 -107.6,260.38 -193.57,344.16 -90.17,87.89 -209.15,135.28 -390.11,135.28 -195.98,0 -319.62,-60.9 -407.87,-155.25 -83.32,-89.05 -128.15,-201.34 -173.65,-319.02l-2.19 -5.16 -907.26 -2367.05 14.97 2720.46c0.21,2.4 0.34,4.84 0.34,7.29 0,42.99 -34.86,77.84 -77.84,77.84l-674.55 0c-42.99,0 -77.84,-34.85 -77.84,-77.84l0 -3147.88c0,-271.84 140.61,-410.03 296.31,-480.32 146.75,-66.26 303.53,-67.69 358.99,-67.69 228.51,0 377.76,60.13 484.78,156.15 105.43,94.6 163.93,219 216.15,353.67l924.95 2386.44c8.08,20.33 16.4,38.64 24.63,53.98 8.36,-15.57 16.84,-34.19 25.13,-54.89l924.3 -2384.92c83.59,-220.11 188.06,-347.18 308.2,-420.28 121.63,-74.01 253.02,-90.15 393.03,-90.15 191.1,0 358.17,44.83 476.49,141.17 112.39,91.5 178.81,225.56 178.81,406.84l0 3147.88c0,42.99 -34.86,77.84 -77.84,77.84l-674.55 0 0 -0.3 -0.31 0c-42.81,-0.16 -77.39,-35.03 -77.23,-77.84zm5250.74 -2807.69c11.21,-28.77 29.92,-69.39 52.53,-100.01 26.8,-36.31 61.33,-62.21 104.66,-62.21 25.58,0 64.07,6.53 96.88,44.13l0.15 -0.14c23.42,26.92 42.17,70.43 42.17,141.15 0,2.51 -0.13,4.99 -0.37,7.45l-19.83 2699.78 518.6 0 0 -3070.03c0,-130.39 -44.97,-224.51 -121.03,-286.44 -88.76,-72.26 -221.9,-105.88 -378.59,-105.88 -115.49,0 -221.73,11.99 -312.16,67.03 -91.9,55.92 -174,158.85 -243.73,342.44 -319.66,789.62 -605.77,1598.41 -925.58,2387.94 -18.29,45.89 -38.94,86.32 -60.26,115.5 -30.5,41.75 -66.98,66.36 -108.84,66.36 -41.9,0 -78.37,-24.63 -108.85,-66.35 -21.35,-29.2 -41.97,-69.63 -60.31,-115.49l-925.25 -2387.35c-44.87,-115.71 -93.73,-221.33 -174.81,-294.08 -79.51,-71.33 -196.01,-115.99 -381.39,-115.99 -46.74,0 -178.73,1.14 -295.13,53.69 -107.46,48.51 -204.48,145.43 -204.48,338.63l0 3070.03 518.74 0 -14.9 -2707.22 -0.3 0c0,-26.43 0,-185.15 134.05,-185.15 41.43,0 76.3,26.8 103.7,63.86 23.65,32 44.98,75.35 55.75,103.89l914.8 2386.42 1.55 4.51c40.06,103.63 79.28,202.11 142.03,269.19 59.91,64.05 148.37,105.38 294.77,105.38 135.83,0 221.3,-31.83 281.86,-90.85 64.71,-63.06 108.95,-162 156.48,-287.93l914.74 -2386.75 2.33 -5.5zm120.54 2807.69l20.13 -2740.74 -912.39 2380.34c-54.74,144.73 -107.59,260.37 -193.56,344.16 -90.17,87.89 -209.16,135.28 -390.12,135.28 -195.97,0 -319.62,-60.9 -407.87,-155.25 -83.32,-89.05 -128.15,-201.34 -173.65,-319.02l-2.18 -5.16 -907.27 -2367.05 14.98 2720.46c0.21,2.4 0.34,4.84 0.34,7.29 0,42.99 -34.86,77.84 -77.84,77.84l-674.56 0c-42.98,0 -77.84,-34.85 -77.84,-77.84l0 -3147.88c0,-271.85 140.61,-410.03 296.31,-480.32 146.74,-66.26 303.52,-67.69 358.99,-67.69 228.51,0 377.75,60.13 484.77,156.15 105.43,94.59 163.94,219 216.17,353.67l924.64 2385.53c8.24,20.64 16.68,39.22 25.01,54.74 8.34,-15.52 16.78,-34.11 25.04,-54.74l924.32 -2384.92c83.59,-220.11 188.06,-347.18 308.2,-420.28 121.63,-74 253.02,-90.15 393.03,-90.15 191.1,0 358.16,44.83 476.5,141.19 112.39,91.48 178.81,225.54 178.81,406.83l0 3147.88c0,42.99 -34.86,77.84 -77.85,77.84l-674.55 0 0 -0.3 -0.3 0c-42.81,-0.16 -77.39,-35.03 -77.23,-77.84zm-1475.94 -716.31c4.77,0 3.47,-0.14 0.03,-0.39 -3.47,0.25 -4.82,0.39 -0.03,0.39zm5973.05 638.77l0 -380.88 -1133.24 0c-218.74,0 -413.84,-16.27 -581.08,-69.74 -174.74,-55.89 -316.56,-151.17 -419.16,-307.93 -1.36,-2.08 -2.61,-4.21 -3.75,-6.38 -38.52,-61.58 -83.06,-151.14 -117.75,-293.25 -34.61,-141.8 -59.93,-337.19 -59.93,-611.68 0,-271.92 23.83,-478.4 61.54,-637.86 38.74,-163.8 92.74,-279.53 151.22,-365.96 113.85,-170.91 264.03,-263.24 440.73,-312.73 169.19,-47.38 359.05,-54.15 563.92,-54.15l1041.3 0 0 -380.9 -1358.12 0c-123.64,0 -319.91,7.33 -526.1,64.67 -203.17,56.49 -418.03,161.88 -585.16,357.66 -141.23,165.18 -223.06,373.11 -269.78,600.62 -47.69,232.33 -58.86,487.07 -58.86,738.9 0,193.29 6.2,423.77 53.13,649.15 46.06,221.22 131.62,440.02 289.95,617.56 155.09,174.2 341.61,272.19 529.45,326.62 190.92,55.32 386,66.29 552.04,66.29l1429.64 0zm155.68 -458.73l0 536.57c0,42.99 -34.85,77.84 -77.84,77.84l-1507.48 0c-176.34,0 -385.02,-12.07 -595.21,-72.97 -213.31,-61.81 -425.41,-173.42 -602.41,-372.23 -178.91,-200.59 -274.83,-444.28 -325.85,-689.33 -50.17,-240.89 -56.78,-480.57 -56.78,-680.77 0,-259.2 11.85,-523.17 62.51,-769.91 51.65,-251.54 143.62,-483.14 303.86,-670.57 190.58,-223.23 433.13,-342.72 661.76,-406.3 225.59,-62.73 435.63,-70.75 567.45,-70.75l1435.96 0c42.99,0 77.84,34.86 77.84,77.84l0 536.58c0,42.98 -34.85,77.84 -77.84,77.84l-1119.14 0c-193.69,0 -371.79,6.01 -521.96,48.07 -142.64,39.93 -263.35,113.7 -353.84,249.43l-0.3 0.3c-48.73,71.94 -94.32,170.79 -128.33,314.62 -35.09,148.4 -57.28,343.1 -57.28,602.59 0,262.09 23.26,444.9 55.06,575.2 29.74,121.81 66.5,196.47 98.09,247.09l2.72 3.9c81.35,124.3 195.08,200.26 335.86,245.28 148.28,47.42 328.83,61.84 534.25,61.84l1211.09 0c42.99,0 77.84,34.86 77.84,77.84z"/>
   <path class="fil3" d="M15386.73 1429.53c15.3,-40.9 51.09,-117.55 86.83,-117.55 20.48,0 61.35,10.2 61.35,107.31l-20.46 2785.07 674.55 0 0 -3147.88c0,-327.07 -245.29,-470.16 -577.46,-470.16 -255.5,0 -475.22,56.24 -628.57,459.94l-924.91 2386.44c-30.68,76.68 -66.44,132.89 -97.1,132.89 -30.67,0 -66.45,-56.21 -97.08,-132.89l-924.96 -2386.44c-97.08,-250.4 -214.65,-459.94 -628.56,-459.94 -102.2,0 -577.46,5.11 -577.46,470.16l0 3147.88 674.55 0 -15.33 -2785.07c0,-15.33 0,-107.31 56.21,-107.31 30.64,0 71.53,76.66 86.88,117.55l914.71 2386.45c86.87,224.85 168.65,429.27 511.04,429.27 316.81,0 408.81,-158.42 511,-429.27l914.75 -2386.45zm5371.26 0c15.33,-40.9 51.1,-117.55 86.85,-117.55 20.46,0 61.34,10.2 61.34,107.31l-20.46 2785.07 674.55 0 0 -3147.88c0,-327.07 -245.29,-470.16 -577.46,-470.16 -255.5,0 -475.23,56.24 -628.56,459.94l-924.92 2386.44c-30.67,76.68 -66.45,132.89 -97.1,132.89 -30.67,0 -66.44,-56.21 -97.1,-132.89l-924.94 -2386.44c-97.1,-250.4 -214.66,-459.94 -628.57,-459.94 -102.2,0 -577.46,5.11 -577.46,470.16l0 3147.88 674.56 0 -15.33 -2785.07c0,-15.33 0,-107.31 56.21,-107.31 30.63,0 71.53,76.66 86.88,117.55l914.7 2386.45c86.88,224.85 168.66,429.27 511.04,429.27 316.82,0 408.81,-158.42 511.01,-429.27l914.73 -2386.45zm4625.15 2774.82l0 -536.57 -1211.09 0c-424.16,0 -751.22,-61.31 -935.17,-342.39 -71.56,-112.41 -168.65,-332.16 -168.65,-868.74 0,-531.42 91.99,-802.28 199.3,-960.7 204.42,-306.6 541.66,-332.16 940.26,-332.16l1119.14 0 0 -536.58 -1435.96 0c-255.5,0 -812.5,30.68 -1170.24,449.69 -301.49,352.64 -347.5,878.97 -347.5,1390 0,393.49 25.58,940.27 362.85,1318.4 332.14,373.07 797.18,419.05 1139.56,419.05l1507.48 0z"/>
  </g>
 </g>
</svg>
