<?xml version="1.0" encoding="UTF-8"?>
<!DOCTYPE svg PUBLIC "-//W3C//DTD SVG 1.1//EN" "http://www.w3.org/Graphics/SVG/1.1/DTD/svg11.dtd">
<!-- Creator: CorelDRAW 2018 (64-Bit) -->
<svg xmlns="http://www.w3.org/2000/svg" xml:space="preserve" width="14mm" height="14mm" version="1.1" style="shape-rendering:geometricPrecision; text-rendering:geometricPrecision; image-rendering:optimizeQuality; fill-rule:evenodd; clip-rule:evenodd"
viewBox="0 0 20.4 20.4"
 xmlns:xlink="http://www.w3.org/1999/xlink">
 <defs>
  <style type="text/css">
   <![CDATA[
    .fil1 {fill:none}
    .fil0 {fill:#177EC9}
   ]]>
  </style>
 </defs>
 <g id="Слой_x0020_1">
  <metadata id="CorelCorpID_0Corel-Layer"/>
  <g id="_2335795760288">
   <path class="fil0" d="M3.56 9.63c-0.41,0.02 -0.84,0.02 -1.25,0.02 -0.35,0.01 -0.91,-0.06 -0.97,0.31 -0.04,0.23 0.31,0.63 0.45,0.81l1.62 2.19c0.19,0.25 0.36,0.47 0.55,0.72 0.27,0.37 0.7,0.88 1.14,0.41 0.34,-0.35 2.15,-2.77 2.49,-3.24 0.09,-0.13 0.48,-0.61 0.5,-0.78 0.07,-0.47 -0.47,-0.42 -0.85,-0.42 -0.43,-0.01 -0.85,-0.02 -1.28,-0.02 0.22,-1.53 1.33,-2.94 2.81,-3.5 1.23,-0.47 2.69,-0.37 3.83,0.3 0.48,0.28 0.66,0.51 0.92,0.67 0.1,-0.07 0.61,-0.78 0.73,-0.93 0.13,-0.16 0.25,-0.33 0.38,-0.47 0.21,-0.24 0.3,-0.24 0.45,-0.39 -0.1,-0.13 -0.18,-0.19 -0.3,-0.29 -0.12,-0.1 -0.21,-0.18 -0.34,-0.28 -0.72,-0.53 -1.62,-0.94 -2.53,-1.16 -0.52,-0.13 -1.7,-0.22 -2.25,-0.15 -2,0.25 -3.58,1.18 -4.72,2.66 -0.66,0.85 -1.39,2.37 -1.39,3.52z"/>
   <path class="fil0" d="M17.13 10.96c0.19,-0.05 1,-0.03 1.26,-0.04 0.36,-0.01 0.9,0.06 0.96,-0.31 0.03,-0.21 -0.28,-0.56 -0.45,-0.8l-1.09 -1.47c-0.19,-0.25 -0.36,-0.48 -0.54,-0.73 -0.19,-0.26 -0.37,-0.48 -0.55,-0.72 -0.21,-0.27 -0.69,-0.93 -1.13,-0.42 -0.46,0.52 -2.96,3.75 -2.99,4.03 -0.06,0.45 0.47,0.4 0.84,0.41 0.42,0.01 0.84,0.02 1.26,0.03 0.07,0.19 -0.26,1.04 -0.34,1.22 -0.17,0.36 -0.4,0.71 -0.62,0.95 -0.47,0.51 -0.99,1.01 -1.83,1.33 -0.81,0.31 -1.84,0.39 -2.72,0.14 -1.38,-0.39 -1.81,-1.04 -2.02,-1.11l-0.72 0.94c-0.16,0.22 -0.4,0.51 -0.61,0.66 -0.08,0.06 -0.16,0.12 -0.22,0.18 0.09,0.14 0.49,0.45 0.67,0.58 0.72,0.52 1.61,0.93 2.52,1.14 1.38,0.33 2.91,0.16 4.21,-0.39 2.33,-0.99 3.83,-3.09 4.14,-5.63z"/>
  </g>
  <rect class="fil1" width="20.4" height="20.4"/>
 </g>
</svg>
