<?xml version="1.0" encoding="UTF-8"?>
<!DOCTYPE svg PUBLIC "-//W3C//DTD SVG 1.1//EN" "http://www.w3.org/Graphics/SVG/1.1/DTD/svg11.dtd">
<!-- Creator: CorelDRAW 2018 (64-Bit) -->
<svg xmlns="http://www.w3.org/2000/svg" xml:space="preserve" width="14mm" height="14mm" version="1.1" style="shape-rendering:geometricPrecision; text-rendering:geometricPrecision; image-rendering:optimizeQuality; fill-rule:evenodd; clip-rule:evenodd"
viewBox="0 0 19.7 19.7"
 xmlns:xlink="http://www.w3.org/1999/xlink">
 <defs>
  <style type="text/css">
   <![CDATA[
    .fil1 {fill:none}
    .fil0 {fill:#177EC9}
   ]]>
  </style>
 </defs>
 <g id="Слой_x0020_1">
  <metadata id="CorelCorpID_0Corel-Layer"/>
  <g id="_2335609089536">
   <path class="fil0" d="M6.73 13.48c0,-0.8 0.35,-1.55 0.89,-2.08 0.27,-0.27 0.38,-0.27 0.37,-0.47l-0 -1.25c0,-0.57 -0.03,-4.69 0.01,-5.05 0.18,-1.78 2.51,-2.21 3.35,-0.7 0.17,0.3 0.22,0.62 0.22,1.02 -0,0.5 -0.02,6.05 0,6.13 0.01,0.04 0.27,0.26 0.31,0.3 0.31,0.28 0.57,0.71 0.73,1.11 0.13,0.33 0.19,0.64 0.21,1.02 0.01,0.45 0.09,0.55 -0.1,1.09 -0.44,1.28 -1.62,2.05 -2.97,2.05 -1.59,0 -3.03,-1.42 -3.03,-3.02l0 -0.14zm2.62 4.12l0.98 0c0.14,-0.07 1.09,-0.09 2.01,-0.84 0.49,-0.4 0.91,-0.88 1.22,-1.61 0.29,-0.68 0.42,-1.64 0.21,-2.42 -0.2,-0.77 -0.49,-1.29 -0.98,-1.85 -0.26,-0.3 -0.22,-0.19 -0.22,-0.49l0 -4.97c0,-1.07 -0.03,-1.56 -0.56,-2.27 -0.2,-0.26 -0.43,-0.49 -0.75,-0.68 -0.55,-0.33 -0.77,-0.27 -1.03,-0.37l-0.8 0c-0.08,0.03 -0.2,0.04 -0.29,0.06 -0.28,0.08 -0.51,0.16 -0.75,0.32 -0.3,0.19 -0.54,0.4 -0.74,0.67 -0.52,0.68 -0.57,1.24 -0.57,2.26l0 4.95c0,0.41 0.01,0.27 -0.2,0.5 -0.18,0.19 -0.46,0.61 -0.59,0.84 -0.18,0.34 -0.28,0.6 -0.38,1.02 -0.37,1.51 0.29,3.14 1.46,4.04 1.05,0.81 1.75,0.74 1.97,0.85z"/>
   <path class="fil0" d="M8.72 11.43c-0.04,0.09 -0.2,0.16 -0.28,0.22 -0.78,0.6 -1.16,1.49 -0.9,2.51 0.25,0.97 1.11,1.77 2.28,1.78 1.7,0.01 2.95,-1.71 2.14,-3.44 -0.11,-0.23 -0.25,-0.41 -0.43,-0.58 -0.21,-0.21 -0.31,-0.29 -0.57,-0.45 -0.03,-0.35 -0,-1.85 -0,-2.31 0,-0.53 -0.17,-0.91 -0.61,-1.11 -0.15,-0.07 -0.3,-0.12 -0.48,-0.13 -0.35,-0.01 -0.66,0.18 -0.82,0.34 -0.18,0.18 -0.32,0.47 -0.32,0.84 -0,0.78 0,1.56 0,2.34z"/>
   <path class="fil0" d="M12.89 6.42c0.05,0.33 0.32,0.4 0.61,0.4 0.37,-0 1.78,0.02 2.02,-0 0.26,-0.03 0.49,-0.24 0.43,-0.55 -0.07,-0.36 -0.34,-0.4 -0.61,-0.4 -0.43,0 -1.7,-0.02 -2.02,0 -0.26,0.02 -0.47,0.26 -0.43,0.55z"/>
   <path class="fil0" d="M15.95 9.7c0.09,-0.3 -0.14,-0.56 -0.38,-0.6 -0.15,-0.03 -1.71,-0.01 -2.01,-0.01 -0.34,-0 -0.57,0.04 -0.66,0.34 -0.09,0.31 0.12,0.56 0.37,0.6 0.16,0.03 1.7,0.01 2,0.01 0.37,0 0.57,-0.04 0.66,-0.35z"/>
   <path class="fil0" d="M12.9 8.04c0.04,0.2 0.22,0.37 0.43,0.39 0.24,0.02 0.57,0 0.83,0 0.21,0 0.62,0.03 0.78,-0.04 0.45,-0.19 0.36,-0.87 -0.16,-0.92 -0.21,-0.02 -1.46,-0.02 -1.61,0.04 -0.17,0.07 -0.33,0.27 -0.28,0.53z"/>
   <path class="fil0" d="M12.9 4.81c0.04,0.2 0.22,0.36 0.45,0.38 0.24,0.01 1.45,0.03 1.6,-0.04 0.16,-0.07 0.33,-0.27 0.28,-0.53 -0.04,-0.21 -0.22,-0.36 -0.45,-0.38 -0.23,-0.02 -1.45,-0.03 -1.6,0.04 -0.17,0.07 -0.32,0.28 -0.27,0.54z"/>
  </g>
  <rect class="fil1" width="19.7" height="19.7"/>
 </g>
</svg>
