<?xml version="1.0" encoding="UTF-8"?>
<!DOCTYPE svg PUBLIC "-//W3C//DTD SVG 1.1//EN" "http://www.w3.org/Graphics/SVG/1.1/DTD/svg11.dtd">
<!-- Creator: CorelDRAW 2018 (64-Bit) -->
<svg xmlns="http://www.w3.org/2000/svg" xml:space="preserve" width="14mm" height="14mm" version="1.1" style="shape-rendering:geometricPrecision; text-rendering:geometricPrecision; image-rendering:optimizeQuality; fill-rule:evenodd; clip-rule:evenodd"
viewBox="0 0 20.4 20.4"
 xmlns:xlink="http://www.w3.org/1999/xlink">
 <defs>
  <style type="text/css">
   <![CDATA[
    .fil1 {fill:none}
    .fil0 {fill:#177EC9}
   ]]>
  </style>
 </defs>
 <g id="Слой_x0020_1">
  <metadata id="CorelCorpID_0Corel-Layer"/>
  <path class="fil0" d="M4.27 11.6c0,1.1 0.23,2.07 0.64,3.03 0.08,0.19 0.31,0.68 0.44,0.79l0.43 -0.61c0.61,-0.81 0.87,-0.91 1.65,-1.53 0.61,-0.49 1.14,-0.95 1.68,-1.5 0.35,-0.36 0.71,-0.71 1.02,-1.1 0.16,-0.2 0.32,-0.38 0.48,-0.59 0.31,-0.4 0.59,-0.79 0.88,-1.24 0.28,-0.43 0.53,-0.86 0.78,-1.34 0.11,-0.21 0.24,-0.48 0.34,-0.72 0.06,-0.13 0.27,-0.68 0.32,-0.75 -0.03,0.21 -0.23,0.74 -0.31,0.94 -0.58,1.5 -1.27,2.78 -2.22,4.05 -0.73,0.99 -1.5,1.77 -2.45,2.57 -0.56,0.47 -0.87,0.56 -1.34,1.18 -0.54,0.73 -0.9,1.68 -1.14,2.61 -0.08,0.29 -0.19,0.76 -0.22,1.06 0.15,-0.04 0.36,-0.13 0.5,-0.19 0.74,-0.28 0.45,0.05 0.66,-0.8 0.05,-0.2 0.11,-0.4 0.18,-0.58 0.12,-0.32 0.32,-0.79 0.51,-1.03l1.21 0.07c1.94,0 3.33,-0.5 4.59,-1.38 1.68,-1.18 2.99,-3.36 3.2,-5.62 0.16,-1.76 -0.14,-3.44 -0.75,-5.04 -0.19,-0.48 -0.45,-1.05 -0.71,-1.49 -0.08,-0.14 -0.22,-0.33 -0.28,-0.46 -0.08,0.04 -0.26,0.21 -0.34,0.28 -0.82,0.71 -1.62,1.23 -2.69,1.63 -3.23,1.2 -7.06,3.51 -7.06,7.76z"/>
  <rect class="fil1" width="20.4" height="20.4"/>
 </g>
</svg>
