<?xml version="1.0" encoding="UTF-8"?>
<!DOCTYPE svg PUBLIC "-//W3C//DTD SVG 1.1//EN" "http://www.w3.org/Graphics/SVG/1.1/DTD/svg11.dtd">
<!-- Creator: CorelDRAW 2018 (64-Bit) -->
<svg xmlns="http://www.w3.org/2000/svg" xml:space="preserve" width="14mm" height="14mm" version="1.1" style="shape-rendering:geometricPrecision; text-rendering:geometricPrecision; image-rendering:optimizeQuality; fill-rule:evenodd; clip-rule:evenodd"
viewBox="0 0 19.7 19.7"
 xmlns:xlink="http://www.w3.org/1999/xlink">
 <defs>
  <style type="text/css">
   <![CDATA[
    .fil1 {fill:none}
    .fil0 {fill:#177EC9}
   ]]>
  </style>
 </defs>
 <g id="Слой_x0020_1">
  <metadata id="CorelCorpID_0Corel-Layer"/>
  <path class="fil0" d="M4.56 10.34c0,0.95 0.2,1.79 0.56,2.62 0.07,0.17 0.27,0.59 0.38,0.68l0.37 -0.53c0.53,-0.7 0.75,-0.79 1.42,-1.32 0.52,-0.42 0.98,-0.82 1.45,-1.3 0.3,-0.31 0.61,-0.61 0.88,-0.95 0.14,-0.17 0.28,-0.33 0.41,-0.51 0.27,-0.35 0.51,-0.69 0.76,-1.07 0.24,-0.37 0.46,-0.75 0.67,-1.16 0.1,-0.19 0.21,-0.42 0.29,-0.62 0.05,-0.12 0.23,-0.59 0.27,-0.65 -0.02,0.18 -0.2,0.64 -0.27,0.81 -0.5,1.29 -1.1,2.4 -1.92,3.5 -0.63,0.86 -1.29,1.53 -2.12,2.22 -0.49,0.41 -0.75,0.48 -1.16,1.02 -0.47,0.63 -0.78,1.45 -0.99,2.25 -0.07,0.25 -0.17,0.66 -0.19,0.92 0.13,-0.03 0.31,-0.11 0.44,-0.16 0.48,-0.18 0.46,-0.07 0.49,-0.31 0.05,-0.03 0.13,-0.1 0.31,-0.22 0.12,-0.08 0.24,-0.14 0.37,-0.2 0.21,-0.1 0.54,-0.24 0.75,-0.27l0.57 0.62c0.96,0.93 1.89,1.35 2.94,1.52 1.4,0.22 3.1,-0.23 4.28,-1.25 0.93,-0.8 1.58,-1.78 2.05,-2.87 0.14,-0.33 0.28,-0.74 0.37,-1.08 0.03,-0.11 0.05,-0.27 0.08,-0.36 -0.06,-0.02 -0.23,-0.02 -0.3,-0.02 -0.75,-0.04 -1.4,-0.17 -2.12,-0.48 -0.51,-0.22 -1.06,-0.43 -1.64,-0.59 0.42,-0.79 0.7,-1.66 0.78,-2.55 0.14,-1.52 -0.12,-2.97 -0.65,-4.36 -0.16,-0.42 -0.39,-0.9 -0.61,-1.29 -0.07,-0.12 -0.19,-0.29 -0.24,-0.4 -0.07,0.03 -0.22,0.18 -0.29,0.24 -0.71,0.61 -1.4,1.06 -2.32,1.41 -2.79,1.04 -6.1,3.03 -6.1,6.7zm2.01 4.54c0.1,-0.28 0.27,-0.66 0.42,-0.86l0.11 0.01c-0,0.01 -0,0.02 0,0.02l0.09 -0.02 0.85 0.05c0.71,-0.23 1.54,0.02 2.68,-0.03 0.35,-0.01 0.69,-0.01 1.04,-0.05 0.17,-0.02 0.34,-0.04 0.52,-0.06 0.35,-0.05 0.68,-0.11 1.03,-0.19 0.35,-0.08 0.68,-0.17 1.03,-0.29 0.16,-0.05 0.35,-0.12 0.51,-0.19 0.09,-0.04 0.46,-0.21 0.52,-0.22 -0.11,0.09 -0.47,0.25 -0.61,0.32 -1.01,0.46 -1.97,0.77 -3.05,0.95 -0.84,0.14 -1.59,0.16 -2.45,0.1 -0.51,-0.04 -0.7,-0.14 -1.23,-0.06 -0.49,0.08 -0.99,0.29 -1.46,0.54z"/>
  <rect class="fil1" width="19.7" height="19.7"/>
 </g>
</svg>
