<?xml version="1.0" encoding="UTF-8"?>
<!DOCTYPE svg PUBLIC "-//W3C//DTD SVG 1.1//EN" "http://www.w3.org/Graphics/SVG/1.1/DTD/svg11.dtd">
<!-- Creator: CorelDRAW 2018 (64-Bit) -->
<svg xmlns="http://www.w3.org/2000/svg" xml:space="preserve" width="14mm" height="14mm" version="1.1" style="shape-rendering:geometricPrecision; text-rendering:geometricPrecision; image-rendering:optimizeQuality; fill-rule:evenodd; clip-rule:evenodd"
viewBox="0 0 19.06 19.06"
 xmlns:xlink="http://www.w3.org/1999/xlink">
 <defs>
  <style type="text/css">
   <![CDATA[
    .fil1 {fill:none}
    .fil0 {fill:#177EC9}
   ]]>
  </style>
 </defs>
 <g id="Слой_x0020_1">
  <metadata id="CorelCorpID_0Corel-Layer"/>
  <path class="fil0" d="M8.14 9.67c-0.08,-0.76 0.5,-1.45 1.25,-1.53 1,-0.11 1.81,0.86 1.47,1.86 -0.14,0.41 -0.63,0.88 -1.17,0.92 -0.83,0.07 -1.47,-0.52 -1.55,-1.26zm-0.78 -1.94c-0.04,0.12 -0.2,0.26 -0.25,0.4 -0.27,-0.05 -4.11,-2.29 -4.26,-2.32 -0.29,0.58 -0.65,1.15 -0.75,1.86 -0.12,0.87 0.07,1.52 0.46,2.11 0.21,0.32 0.36,0.39 0.78,0.53 0.71,0.24 1.57,0.3 2.33,0.26 0.42,-0.02 0.79,-0.09 1.2,-0.13 0.05,0.11 0.18,0.36 0.2,0.47 -0.1,0.09 -0.38,0.23 -0.51,0.31l-3.16 1.81c-0.17,0.1 -0.37,0.23 -0.53,0.31 0.04,0.14 0.48,0.74 0.58,0.87 0.74,0.96 1.62,1.46 2.98,1.39 0.18,-0.01 0.15,-0 0.27,-0.09 0.29,-0.2 0.35,-0.25 0.61,-0.49 0.74,-0.69 1.25,-1.65 1.62,-2.6 0.06,-0.16 0.03,-0.12 0.59,-0.07l0.01 4.67c1.05,0 2.16,-0.18 2.92,-0.78 0.28,-0.23 0.51,-0.49 0.69,-0.8 0.05,-0.09 0.24,-0.41 0.25,-0.5 0.01,-0.3 -0.16,-0.95 -0.25,-1.22 -0.12,-0.36 -0.31,-0.72 -0.48,-1.01 -0.29,-0.49 -0.45,-0.69 -0.76,-1.1 -0.05,-0.06 -0.13,-0.15 -0.16,-0.22 -0.05,-0.1 0.03,-0.17 0.08,-0.24 0.05,-0.08 0.1,-0.15 0.16,-0.22 0.1,0.02 0.9,0.48 1.05,0.57l2.1 1.17c0.17,0.1 0.35,0.2 0.53,0.29 0.13,0.07 0.42,0.25 0.55,0.28 0.13,-0.11 0.38,-0.71 0.47,-0.92 0.14,-0.33 0.27,-0.7 0.3,-1.1 0.03,-0.45 0.01,-0.83 -0.13,-1.23 -0.11,-0.32 -0.32,-0.69 -0.5,-0.9 -0.3,-0.34 -1.57,-0.57 -2.18,-0.59 -0.43,-0.01 -0.9,0 -1.32,0.05 -0.66,0.07 -0.63,0.15 -0.76,-0.14 -0.04,-0.08 -0.08,-0.16 -0.1,-0.26l2.11 -1.2c0.24,-0.15 2.04,-1.14 2.09,-1.21 -0.09,-0.24 -0.43,-0.68 -0.58,-0.87 -0.76,-0.97 -1.57,-1.45 -2.98,-1.39 -0.22,0.01 -0.24,0.06 -0.49,0.24 -0.16,0.12 -0.26,0.21 -0.39,0.34 -0.61,0.58 -1.13,1.4 -1.46,2.2 -0.27,0.66 -0.1,0.53 -0.75,0.47l-0.01 -4.67c-1.65,0 -3,0.36 -3.77,1.86 -0.13,0.25 -0.1,0.25 -0.06,0.56 0.13,1.02 0.72,2.1 1.35,2.87l0.3 0.4z"/>
  <rect class="fil1" width="19.06" height="19.06"/>
 </g>
</svg>
