<?xml version="1.0" encoding="UTF-8"?>
<!DOCTYPE svg PUBLIC "-//W3C//DTD SVG 1.1//EN" "http://www.w3.org/Graphics/SVG/1.1/DTD/svg11.dtd">
<!-- Creator: CorelDRAW 2018 (64-Bit) -->
<svg xmlns="http://www.w3.org/2000/svg" xml:space="preserve" width="14mm" height="14mm" version="1.1" style="shape-rendering:geometricPrecision; text-rendering:geometricPrecision; image-rendering:optimizeQuality; fill-rule:evenodd; clip-rule:evenodd"
viewBox="0 0 18.45 18.45"
 xmlns:xlink="http://www.w3.org/1999/xlink">
 <defs>
  <style type="text/css">
   <![CDATA[
    .fil1 {fill:none}
    .fil0 {fill:#177EC9}
   ]]>
  </style>
 </defs>
 <g id="Слой_x0020_1">
  <metadata id="CorelCorpID_0Corel-Layer"/>
  <path class="fil0" d="M9.65 11.01c0.62,-0.14 0.82,-0.51 0.95,-0.51l4.07 0c0.62,-0 1.89,-0.02 2.44,0.01 -0.23,0.58 -0.85,1.12 -1.7,1.12l-5.76 0 -0 -0.62zm-6.59 0.62c-0.86,0 -1.48,-0.53 -1.72,-1.12l6.14 -0c0.42,0 0.37,-0.04 0.56,0.12 0.21,0.18 0.48,0.32 0.76,0.38l0 0.62 -5.74 0zm6.05 -3.38c0.57,-0.07 1.03,0.36 1.09,0.86 0.07,0.57 -0.36,1.04 -0.86,1.09 -0.57,0.07 -1.04,-0.36 -1.09,-0.86 -0.07,-0.59 0.36,-1.03 0.87,-1.1zm8.14 1.4l-6.25 -0c0.06,-0.38 0.06,-0.47 0,-0.84l6.25 -0 0 0.85zm-16.07 -0.85l3.33 0c0.92,0 2.03,-0.02 2.92,0 -0.06,0.39 -0.06,0.45 0,0.84l-6.25 0 0 -0.7 0 -0.14zm8.46 -1.97l7.06 0c0.32,0 0.55,-0.05 0.55,0.19l-0 0.93 -6.08 -0c-0.97,-0 -0.43,0.05 -1.02,-0.3 -0.16,-0.09 -0.32,-0.16 -0.51,-0.21l0 -0.44 -0 -0.18zm-8.46 1.13c0,-1.26 -0.12,-1.13 0.51,-1.13l2.73 -0c1.46,0 2.91,0.01 4.37,0l-0 0.62c-0.29,0.07 -0.49,0.18 -0.69,0.33 -0.23,0.16 -0.12,0.18 -0.33,0.18 -0.17,-0 -0.34,-0 -0.51,-0l-6.08 0zm-0.84 1.9c0.01,0.12 -0.02,0.23 0.02,0.33 0.03,0.1 0.05,0.2 0.08,0.31 0.15,0.54 0.49,1.07 0.9,1.37 0.8,0.61 1.25,0.6 2.43,0.6l10.62 0c0.46,-0 1.04,0.03 1.48,-0.04 0.88,-0.14 1.47,-0.68 1.81,-1.22 0.1,-0.15 0.18,-0.32 0.25,-0.51 0.03,-0.09 0.16,-0.51 0.16,-0.59 0,-0.07 -0.01,-0.09 -0.01,-0.17l0.01 -2.84c0,-0.49 -0.23,-0.82 -0.54,-0.98 -0.38,-0.2 -0.92,-0.13 -1.38,-0.13l-7.58 0c-2.03,-0 -4.05,-0 -6.08,-0 -0.63,0 -1.54,-0.13 -1.92,0.35 -0.13,0.17 -0.18,0.27 -0.24,0.52 -0.06,0.22 -0.02,1.2 -0.02,1.5 0,0.29 -0.01,1.31 0,1.52z"/>
  <rect class="fil1" width="18.45" height="18.45"/>
 </g>
</svg>
