<?xml version="1.0" encoding="UTF-8"?>
<!DOCTYPE svg PUBLIC "-//W3C//DTD SVG 1.1//EN" "http://www.w3.org/Graphics/SVG/1.1/DTD/svg11.dtd">
<!-- Creator: CorelDRAW 2018 (64-Bit) -->
<svg xmlns="http://www.w3.org/2000/svg" xml:space="preserve" width="14mm" height="14mm" version="1.1" style="shape-rendering:geometricPrecision; text-rendering:geometricPrecision; image-rendering:optimizeQuality; fill-rule:evenodd; clip-rule:evenodd"
viewBox="0 0 18.45 18.45"
 xmlns:xlink="http://www.w3.org/1999/xlink">
 <defs>
  <style type="text/css">
   <![CDATA[
    .fil1 {fill:none}
    .fil0 {fill:#177EC9}
   ]]>
  </style>
 </defs>
 <g id="Слой_x0020_1">
  <metadata id="CorelCorpID_0Corel-Layer"/>
  <path class="fil0" d="M11.62 3.97c0.78,-0.17 1.46,0.35 1.61,1.03 0.17,0.78 -0.34,1.46 -1.03,1.61 -0.79,0.17 -1.48,-0.34 -1.62,-1.04 -0.16,-0.78 0.35,-1.45 1.04,-1.6zm-0.91 4.24c0.12,0.01 0.37,0.12 0.53,0.15 1.37,0.3 2.72,-0.33 3.39,-1.48 0.85,-1.45 0.37,-3.16 -0.75,-4.06 -0.12,-0.1 -0.27,-0.2 -0.42,-0.28 -1.97,-1.11 -4.37,0.14 -4.68,2.24 -0.14,0.92 0.1,1.6 0.52,2.29 -0.04,0.07 -1.78,2.23 -1.82,2.29l-2.75 3.44c-0.23,0.29 -0.71,0.86 -0.9,1.15 -0.15,0.21 -0.33,0.34 -0.41,0.62 -0.15,0.58 0.26,1.14 0.85,1.15 0.44,0.01 0.6,-0.25 0.73,-0.33 0.33,0.25 0.64,0.51 0.96,0.76 0.5,0.4 0.68,0.06 1.01,-0.35 0.08,-0.1 0.32,-0.37 0.36,-0.5 0.09,-0.31 -0.12,-0.45 -0.25,-0.56 -0.14,-0.11 -0.89,-0.69 -0.95,-0.76 0.04,-0.08 0.52,-0.67 0.57,-0.71 0.06,0.06 0.17,0.14 0.24,0.2 0.18,0.15 0.81,0.69 0.97,0.73 0.37,0.09 0.55,-0.25 0.76,-0.51 0.34,-0.42 0.6,-0.67 0.09,-1.07 -0.16,-0.13 -0.31,-0.25 -0.47,-0.38 -0.1,-0.08 -0.41,-0.31 -0.47,-0.38 0.11,-0.12 0.22,-0.28 0.36,-0.46l1.08 -1.36c0.25,-0.31 0.48,-0.6 0.73,-0.91l0.72 -0.9z"/>
  <rect class="fil1" width="18.45" height="18.45"/>
 </g>
</svg>
