<?xml version="1.0" encoding="UTF-8"?>
<!DOCTYPE svg PUBLIC "-//W3C//DTD SVG 1.1//EN" "http://www.w3.org/Graphics/SVG/1.1/DTD/svg11.dtd">
<!-- Creator: CorelDRAW 2018 (64-Bit) -->
<svg xmlns="http://www.w3.org/2000/svg" xml:space="preserve" width="14mm" height="14mm" version="1.1" style="shape-rendering:geometricPrecision; text-rendering:geometricPrecision; image-rendering:optimizeQuality; fill-rule:evenodd; clip-rule:evenodd"
viewBox="0 0 19.06 19.06"
 xmlns:xlink="http://www.w3.org/1999/xlink">
 <defs>
  <style type="text/css">
   <![CDATA[
    .fil1 {fill:none}
    .fil0 {fill:#177EC9}
   ]]>
  </style>
 </defs>
 <g id="Слой_x0020_1">
  <metadata id="CorelCorpID_0Corel-Layer"/>
  <g id="_2337429513264">
   <path class="fil0" d="M10.48 6.79c0.36,-0.09 0.57,0.2 0.71,0.35 0.19,0.19 0.35,0.35 0.54,0.54 0.13,0.13 0.45,0.37 0.5,0.61 0.07,0.33 -0.15,0.59 -0.41,0.65 -0.37,0.09 -0.58,-0.2 -0.73,-0.34 -0.23,-0.23 -0.97,-0.89 -1.03,-1.16 -0.07,-0.34 0.15,-0.58 0.41,-0.65zm2.2 -2.19c0.34,-0.09 0.57,0.2 0.7,0.34 0.22,0.22 0.97,0.89 1.03,1.16 0.07,0.32 -0.15,0.59 -0.4,0.65 -0.38,0.09 -0.58,-0.2 -0.73,-0.35 -0.19,-0.19 -0.35,-0.35 -0.54,-0.54 -0.13,-0.13 -0.45,-0.37 -0.5,-0.61 -0.08,-0.36 0.16,-0.58 0.42,-0.65zm3.59 -0.7c0.19,-0.19 0.6,-0.54 0.74,-0.74 0.23,-0.34 0.17,-0.83 -0.08,-1.08 -0.24,-0.24 -0.74,-0.32 -1.07,-0.07 -0.15,0.11 -0.62,0.57 -0.73,0.73 -0.17,-0.03 -0.41,-0.17 -0.62,-0.23 -0.68,-0.19 -1.41,-0.12 -2.02,0.18 -0.6,0.29 -1.24,1.01 -1.71,1.48 -0.19,0.19 -2.98,2.99 -3.21,3.18 -0.51,-0.31 -0.89,-1.17 -1.42,-1.11 -0.25,0.03 -0.38,0.21 -0.49,0.33 -0.29,0.29 -0.55,0.55 -0.84,0.84 -0.2,0.2 -0.73,0.64 -0.77,0.91 -0.06,0.39 0.33,0.66 0.67,1 0.29,0.29 0.55,0.55 0.84,0.84l4.19 4.19c0.34,0.34 0.59,0.72 1.01,0.61 0.24,-0.06 1.48,-1.37 1.73,-1.63 0.45,-0.45 0.39,-0.66 -0.01,-1.06l-0.83 -0.82 1.61 -1.65c0.55,-0.54 1.07,-1.07 1.62,-1.6 0.49,-0.48 1.22,-1.12 1.49,-1.73 0.18,-0.4 0.29,-0.85 0.26,-1.35 -0.03,-0.54 -0.18,-0.81 -0.35,-1.23z"/>
   <path class="fil0" d="M4.41 10.57c-0.2,0.16 -0.51,0.5 -0.71,0.7 -0.16,0.16 -0.59,0.45 -0.45,0.88 0.1,0.29 1.21,1.18 1.37,1.46 -0.27,0.52 -1.6,1.12 -0.96,1.75 0.63,0.64 1.21,-0.65 1.75,-0.96 0.2,0.11 0.63,0.66 0.86,0.83 -0.06,0.11 -0.41,0.43 -0.52,0.54 -0.3,0.3 -0.16,0.3 -0.74,0.3l-1.57 0c-0.28,0 -0.26,0.03 -0.4,-0.12 -0.14,-0.14 -0.32,-0.41 -0.62,-0.42 -0.29,-0.01 -0.52,0.21 -0.56,0.46 -0.05,0.35 0.21,0.53 0.36,0.67 0.13,0.13 0.36,0.41 0.55,0.48 0.19,0.07 1.71,0.03 2.04,0.03 1.12,0 0.98,0.12 1.59,-0.49 0.35,-0.35 0.69,-0.69 1.04,-1.04 0.18,-0.18 0.33,-0.34 0.51,-0.51 0.12,-0.12 0.43,-0.4 0.5,-0.52l-4.04 -4.04z"/>
  </g>
  <rect class="fil1" width="19.06" height="19.06"/>
 </g>
</svg>
