<?xml version="1.0" encoding="UTF-8"?>
<!DOCTYPE svg PUBLIC "-//W3C//DTD SVG 1.1//EN" "http://www.w3.org/Graphics/SVG/1.1/DTD/svg11.dtd">
<!-- Creator: CorelDRAW 2018 (64-Bit) -->
<svg xmlns="http://www.w3.org/2000/svg" xml:space="preserve" width="3269px" height="2235px" version="1.1" style="shape-rendering:geometricPrecision; text-rendering:geometricPrecision; image-rendering:optimizeQuality; fill-rule:evenodd; clip-rule:evenodd"
viewBox="0 0 611.57 418.15"
 xmlns:xlink="http://www.w3.org/1999/xlink">
 <defs>
  <style type="text/css">
   <![CDATA[
    .fil0 {fill:#177EC9}
   ]]>
  </style>
 </defs>
 <g id="Слой_x0020_1">
  <metadata id="CorelCorpID_0Corel-Layer"/>
  <path class="fil0" d="M96.35 382l0 -26.84 -78.27 0c-9.95,0 -18.08,-8.14 -18.08,-18.08l0 -25.75c0,-9.94 8.13,-18.07 18.08,-18.07l78.27 0 0 -53.23 -78.27 0c-9.95,0 -18.08,-8.14 -18.08,-18.08l0 -25.75c0,-9.94 8.13,-18.07 18.08,-18.07l78.27 0 0 -53.23 -78.27 0c-9.95,0 -18.08,-8.14 -18.08,-18.08l0 -25.75c0,-9.94 8.13,-18.08 18.08,-18.08l78.27 0 0 -26.84c0,-19.88 16.27,-36.15 36.15,-36.15l345.16 0c19.89,0 36.16,16.27 36.16,36.15l0 26.84 79.67 0c9.95,0 18.08,8.14 18.08,18.08l0 25.75c0,9.94 -8.13,18.08 -18.08,18.08l-79.67 0 0 53.23 79.67 0c9.95,0 18.08,8.13 18.08,18.07l0 25.75c0,9.94 -8.13,18.08 -18.08,18.08l-79.67 0 0 53.23 79.67 0c9.95,0 18.08,8.13 18.08,18.07l0 25.75c0,9.94 -8.13,18.08 -18.08,18.08l-79.67 0 0 26.84c0,19.88 -16.27,36.15 -36.16,36.15l-345.16 0c-19.88,0 -36.15,-16.27 -36.15,-36.15zm223.25 -103.8c-5.98,10.65 -17.38,17.84 -30.45,17.84 -19.29,0 -34.92,-15.63 -34.92,-34.92 0,-19.28 15.63,-34.91 34.92,-34.91 12.88,0 24.14,6.98 30.19,17.37l30.57 0 64.89 -63.94c3.07,-3.49 7.5,-5.68 12.43,-5.68l23.73 0 0 -110.76 -291.76 0 0 159.06 18.25 0 65.78 -64.82c3.24,-3.18 7.4,-4.75 11.54,-4.75l0 -0.05 36.98 0c5.98,-10.64 17.38,-17.83 30.46,-17.83 19.28,0 34.91,15.63 34.91,34.91 0,19.29 -15.63,34.92 -34.91,34.92 -12.89,0 -24.15,-6.98 -30.19,-17.37l-30.58 0 -64.89 63.94c-3.07,3.48 -7.5,5.68 -12.43,5.68l-24.92 0 0 98.07 291.76 0 0 -146.37 -17.06 0 -65.78 64.81c-3.24,3.18 -7.39,4.76 -11.54,4.76l0 0.04 -36.98 0z"/>
 </g>
</svg>
