<svg width="81" height="81" viewBox="0 0 81 81" fill="none" xmlns="http://www.w3.org/2000/svg">
<g clip-path="url(#clip0_1065_4745)">
<path d="M40.4746 4.03497C28.5949 4.03497 18.9644 13.9842 18.9644 26.2572C18.9644 38.5302 28.5949 48.4794 40.4746 48.4794C52.3544 48.4794 61.9848 38.5302 61.9848 26.2572C61.9848 13.9842 52.3544 4.03497 40.4746 4.03497Z" fill="#333333"/>
<path d="M2.14285 68.7164C9.26277 60.0806 23.7548 54.1683 40.4746 54.1683C57.1944 54.1683 71.6864 60.0806 78.8064 68.7164C83.4282 74.3223 77.7168 80.835 70.5889 80.835H10.3603C3.23246 80.835 -2.47902 74.3223 2.14285 68.7164Z" fill="#333333"/>
<path d="M76.4746 58.835C76.4746 66.0147 70.6543 71.835 63.4746 71.835C56.2949 71.835 50.4746 66.0147 50.4746 58.835C50.4746 51.6553 56.2949 45.835 63.4746 45.835C70.6543 45.835 76.4746 51.6553 76.4746 58.835Z" fill="#177EC9"/>
<path fill-rule="evenodd" clip-rule="evenodd" d="M80.4746 58.835C80.4746 68.2238 72.8635 75.835 63.4746 75.835C54.0858 75.835 46.4746 68.2238 46.4746 58.835C46.4746 49.4461 54.0858 41.835 63.4746 41.835C72.8635 41.835 80.4746 49.4461 80.4746 58.835ZM63.4746 71.835C70.6543 71.835 76.4746 66.0147 76.4746 58.835C76.4746 51.6553 70.6543 45.835 63.4746 45.835C56.2949 45.835 50.4746 51.6553 50.4746 58.835C50.4746 66.0147 56.2949 71.835 63.4746 71.835Z" fill="white"/>
<path d="M63.4746 51.835C63.088 51.835 62.7746 52.1484 62.7746 52.535V58.135H57.1746C56.788 58.135 56.4746 58.4484 56.4746 58.835C56.4746 59.2216 56.788 59.535 57.1746 59.535H62.7746V65.135C62.7746 65.5216 63.088 65.835 63.4746 65.835C63.8612 65.835 64.1746 65.5216 64.1746 65.135V59.535H69.7746C70.1612 59.535 70.4746 59.2216 70.4746 58.835C70.4746 58.4484 70.1612 58.135 69.7746 58.135H64.1746V52.535C64.1746 52.1484 63.8612 51.835 63.4746 51.835Z" fill="white"/>
</g>
<defs>
<clipPath id="clip0_1065_4745">
<rect width="80" height="80" fill="white" transform="translate(0.474609 0.834961)"/>
</clipPath>
</defs>
</svg>
