<svg width="81" height="81" viewBox="0 0 81 81" fill="none" xmlns="http://www.w3.org/2000/svg">
<g clip-path="url(#clip0_1065_4786)">
<path fill-rule="evenodd" clip-rule="evenodd" d="M66.4746 44.835V48.835H17.4746H13.4746V48.3309C6.5737 46.5547 1.47461 40.2903 1.47461 32.835C1.47461 24.9501 7.1781 18.3974 14.6845 17.0774C16.0116 8.44528 23.4711 1.83496 32.4746 1.83496C39.0865 1.83496 44.8658 5.39994 47.9951 10.7126C49.548 10.1448 51.2251 9.83496 52.9746 9.83496C59.7809 9.83496 65.4919 14.5244 67.0528 20.8486C73.4117 21.1503 78.4746 26.4014 78.4746 32.835C78.4746 39.4624 73.102 44.835 66.4746 44.835Z" fill="#177EC9"/>
<rect x="9.97461" y="45.335" width="51" height="7" rx="2.5" fill="#333333" stroke="white" stroke-width="3"/>
<rect x="11.4746" y="54.835" width="48" height="4" rx="1" fill="#333333"/>
<rect x="11.4746" y="62.835" width="48" height="4" rx="1" fill="#333333"/>
<rect x="11.4746" y="70.835" width="48" height="4" rx="1" fill="#333333"/>
<rect x="18.9746" y="37.335" width="39" height="43" rx="5.5" fill="#333333" stroke="white" stroke-width="3"/>
<path d="M76.4746 58.835C76.4746 66.0147 70.6543 71.835 63.4746 71.835C56.2949 71.835 50.4746 66.0147 50.4746 58.835C50.4746 51.6553 56.2949 45.835 63.4746 45.835C70.6543 45.835 76.4746 51.6553 76.4746 58.835Z" fill="#333333"/>
<path fill-rule="evenodd" clip-rule="evenodd" d="M80.4746 58.835C80.4746 68.2238 72.8635 75.835 63.4746 75.835C54.0858 75.835 46.4746 68.2238 46.4746 58.835C46.4746 49.4461 54.0858 41.835 63.4746 41.835C72.8635 41.835 80.4746 49.4461 80.4746 58.835ZM63.4746 71.835C70.6543 71.835 76.4746 66.0147 76.4746 58.835C76.4746 51.6553 70.6543 45.835 63.4746 45.835C56.2949 45.835 50.4746 51.6553 50.4746 58.835C50.4746 66.0147 56.2949 71.835 63.4746 71.835Z" fill="white"/>
<path d="M63.6742 52.835V64.035M63.6742 64.035L58.0742 58.435M63.6742 64.035L69.2742 58.435" stroke="white" stroke-width="1.6" stroke-linecap="round" stroke-linejoin="round"/>
</g>
<defs>
<clipPath id="clip0_1065_4786">
<rect width="80" height="80" fill="white" transform="translate(0.474609 0.834961)"/>
</clipPath>
</defs>
</svg>
