<svg width="81" height="81" viewBox="0 0 81 81" fill="none" xmlns="http://www.w3.org/2000/svg">
<g clip-path="url(#clip0_1065_4764)">
<path d="M58.8746 80.835H5.27461C2.62364 80.835 0.474609 78.6859 0.474609 76.035V5.63496C0.474609 2.98399 2.62364 0.834961 5.27461 0.834961H40.8746C41.7583 0.834961 42.4746 1.55131 42.4746 2.43496V16.835C42.4746 19.7068 44.8027 22.035 47.6746 22.035H62.0746C62.9583 22.035 63.6746 22.7513 63.6746 23.635V76.035C63.6746 78.6859 61.5256 80.835 58.8746 80.835Z" fill="#177EC9"/>
<path d="M59.7432 18.035C60.456 18.035 60.8129 17.1732 60.3089 16.6693L47.8403 4.20065C47.3363 3.69668 46.4746 4.05361 46.4746 4.76633V16.835C46.4746 17.4977 47.0119 18.035 47.6746 18.035H59.7432Z" fill="#177EC9"/>
<path d="M76.4746 58.835C76.4746 66.0147 70.6543 71.835 63.4746 71.835C56.2949 71.835 50.4746 66.0147 50.4746 58.835C50.4746 51.6553 56.2949 45.835 63.4746 45.835C70.6543 45.835 76.4746 51.6553 76.4746 58.835Z" fill="#333333"/>
<path fill-rule="evenodd" clip-rule="evenodd" d="M80.4746 58.835C80.4746 68.2238 72.8635 75.835 63.4746 75.835C54.0858 75.835 46.4746 68.2238 46.4746 58.835C46.4746 49.4461 54.0858 41.835 63.4746 41.835C72.8635 41.835 80.4746 49.4461 80.4746 58.835ZM63.4746 71.835C70.6543 71.835 76.4746 66.0147 76.4746 58.835C76.4746 51.6553 70.6543 45.835 63.4746 45.835C56.2949 45.835 50.4746 51.6553 50.4746 58.835C50.4746 66.0147 56.2949 71.835 63.4746 71.835Z" fill="white"/>
<path d="M42.5475 42.1458C42.4129 42.7928 42.2049 43.4227 41.9262 44.0204L42.94 45.1111C43.2711 45.4676 43.2799 46.0123 42.968 46.3815L41.5044 48.0952C41.1888 48.4647 40.6491 48.5374 40.2452 48.2662L39.0175 47.4424C38.4497 47.8318 37.8383 48.1488 37.1943 48.3889L37.1382 49.8895C37.1197 50.3758 36.7415 50.7692 36.2597 50.8071L34.0123 50.984C33.5305 51.0219 33.0955 50.6924 33.0011 50.2151L32.7226 48.7939C32.0003 48.6651 31.3011 48.4436 30.6368 48.1361L29.5883 49.1087C29.2318 49.4398 28.6871 49.4486 28.3178 49.1367L26.6042 47.6732C26.2347 47.3575 26.1619 46.8178 26.4331 46.4139L27.2159 45.2425C26.8054 44.646 26.4706 44.002 26.2276 43.3203L24.8753 43.2715C24.3889 43.2529 23.9956 42.8748 23.9577 42.393L23.7808 40.1456C23.7429 39.6637 24.0723 39.2287 24.5497 39.1343L25.8588 38.876C25.9854 38.1729 26.2045 37.4928 26.5022 36.8481L25.6082 35.8844C25.2771 35.5279 25.2683 34.9832 25.5802 34.614L27.0403 32.9044C27.3559 32.5349 27.8956 32.4621 28.2995 32.7333L29.3593 33.4453C29.9769 33.0142 30.6468 32.6698 31.3579 32.4169L31.4068 31.1138C31.4254 30.6275 31.8035 30.2341 32.2853 30.1962L34.5327 30.0193C35.0146 29.9814 35.4496 30.3108 35.544 30.7882L35.7962 32.0676C36.5572 32.2084 37.2924 32.4536 37.9861 32.7967L38.9567 31.8946C39.3132 31.5635 39.858 31.5547 40.2272 31.8666L41.9408 33.3301C42.3103 33.6457 42.3831 34.1854 42.1119 34.5894L41.3323 35.753C41.7278 36.3506 42.0437 36.9962 42.2714 37.6752L43.6692 37.7243C44.1555 37.7428 44.5489 38.121 44.5868 38.6028L44.7637 40.8502C44.8016 41.332 44.4722 41.767 43.9948 41.8614L42.5475 42.1458ZM33.9265 36.707C31.8787 36.8682 30.3423 38.6671 30.5034 40.715C30.6646 42.7628 32.4635 44.2993 34.5114 44.1381C36.5592 43.9769 38.0957 42.178 37.9345 40.1301C37.7733 38.0823 35.9744 36.5459 33.9265 36.707Z" fill="white"/>
<path d="M12.231 45.0887L13.338 43.9941C13.6788 43.6566 14.2184 43.6293 14.5904 43.9296L15.2937 44.4916C15.826 44.1808 16.3985 43.9464 16.996 43.7895L17.1093 42.8715C17.1667 42.3973 17.5741 42.0395 18.0515 42.0398L19.609 42.0498C20.0866 42.0539 20.4898 42.4123 20.5425 42.8892L20.6449 43.8054C21.2566 43.9731 21.8406 44.2226 22.3816 44.5512L23.1237 43.9701C23.502 43.6752 24.0387 43.7087 24.3761 44.0496L25.4714 45.1641C25.8088 45.5049 25.8361 46.0444 25.5359 46.4165L24.9082 47.2007C25.1875 47.7166 25.401 48.2642 25.5442 48.8325L26.5387 48.9549C27.0129 49.0123 27.3707 49.4197 27.3704 49.8971L27.3604 51.4546C27.3563 51.9322 26.9979 52.3354 26.521 52.3881L25.4658 52.5052C25.3135 53.0247 25.0989 53.5227 24.8293 53.9946L25.4905 54.8403C25.7854 55.2186 25.7519 55.7553 25.4111 56.0927L24.3041 57.1874C23.9632 57.5248 23.4237 57.5521 23.0516 57.2519L22.2189 56.5864C21.7294 56.8635 21.2088 57.0825 20.6675 57.2312L20.5364 58.3097C20.479 58.7839 20.0716 59.1417 19.5943 59.1414L18.0367 59.1314C17.5592 59.1273 17.156 58.7689 17.1033 58.292L16.9876 57.2556C16.4072 57.1005 15.8514 56.8716 15.3319 56.5754L14.5218 57.2073C14.1435 57.5022 13.6068 57.4687 13.2693 57.1278L12.1747 56.0208C11.8373 55.68 11.81 55.1405 12.1102 54.7684L12.7416 53.9839C12.4473 53.4692 12.2184 52.9191 12.0674 52.3476L11.1112 52.2297C10.637 52.1723 10.2792 51.7648 10.2795 51.2875L10.2895 49.73C10.2936 49.2524 10.652 48.8492 11.1289 48.7965L12.0714 48.692C12.2239 48.127 12.4465 47.5868 12.7361 47.0792L12.1594 46.3443C11.8569 45.9666 11.8901 45.4262 12.231 45.0887ZM18.766 53.5741C20.4487 53.5857 21.8264 52.2235 21.8341 50.5411C21.8456 48.8584 20.4834 47.4808 18.8011 47.4731C17.1184 47.4615 15.7407 48.8238 15.733 50.5061C15.7215 52.1888 17.0837 53.5664 18.766 53.5741Z" fill="white"/>
<path d="M38.2098 56.2333C38.688 56.2449 39.0846 56.6151 39.126 57.0929L39.2122 58.0445C39.2574 58.522 38.9355 58.9564 38.4659 59.054L37.7728 59.1994C37.6896 59.634 37.556 60.0536 37.3716 60.4544L37.8672 60.976C38.1977 61.325 38.2172 61.8613 37.9091 62.2303L37.2964 62.9641C36.9883 63.333 36.4568 63.4127 36.0534 63.149L35.4585 62.7603C35.0816 63.0248 34.6782 63.2421 34.2517 63.4045L34.2333 64.1332C34.2216 64.6113 33.8514 65.0079 33.3736 65.0493L32.422 65.1355C31.9445 65.1807 31.5101 64.8588 31.4125 64.3892L31.272 63.7109C30.7885 63.6315 30.3228 63.4902 29.8754 63.2906L29.3818 63.7574C29.0328 64.0879 28.4965 64.1074 28.1275 63.7993L27.3937 63.1866C27.0248 62.8786 26.9451 62.347 27.2087 61.9437L27.5704 61.3887C27.2894 60.9941 27.0627 60.5688 26.8945 60.1161L26.2646 60.1013C25.7864 60.0897 25.3899 59.7194 25.3484 59.2416L25.2622 58.2901C25.217 57.8126 25.5389 57.3782 26.0085 57.2806L26.6121 57.1536C26.6927 56.6851 26.8309 56.2273 27.0241 55.7954L26.6072 55.3585C26.2767 55.0096 26.2572 54.4732 26.5653 54.1043L27.1779 53.3705C27.486 53.0015 28.0177 52.9218 28.421 53.1855L28.9041 53.4998C29.3127 53.2063 29.7563 52.9706 30.2275 52.7972L30.2412 52.2014C30.2528 51.7232 30.6231 51.3267 31.1009 51.2853L32.0524 51.199C32.5299 51.1539 32.9643 51.4757 33.0619 51.9453L33.1834 52.5267C33.6904 52.6155 34.1839 52.7737 34.6482 52.9947L35.0886 52.5737C35.4375 52.2432 35.9739 52.2237 36.3428 52.5318L37.0807 53.148C37.4497 53.456 37.5294 53.9876 37.2657 54.3909L36.9038 54.9421C37.1697 55.3379 37.3889 55.7638 37.5458 56.2173L38.2098 56.2333ZM31.9777 55.6404C30.6124 55.763 29.6056 56.9748 29.7282 58.3401C29.8508 59.7054 31.0626 60.7123 32.4279 60.5897C33.7932 60.4671 34.8001 59.2553 34.6775 57.89C34.5548 56.5247 33.3431 55.5178 31.9777 55.6404Z" fill="white"/>
<path d="M57.2754 55.235H70.0754" stroke="white" stroke-width="1.6" stroke-linecap="round" stroke-linejoin="round"/>
<path d="M57.2754 61.6349H70.0754" stroke="white" stroke-width="1.6" stroke-linecap="round" stroke-linejoin="round"/>
<circle cx="66.0738" cy="55.235" r="2.4" fill="white"/>
<circle cx="61.275" cy="61.635" r="2.4" fill="white"/>
</g>
<defs>
<clipPath id="clip0_1065_4764">
<rect width="80" height="80" fill="white" transform="translate(0.474609 0.834961)"/>
</clipPath>
</defs>
</svg>
