<svg width="101" height="101" viewBox="0 0 101 101" fill="none" xmlns="http://www.w3.org/2000/svg">
<g clip-path="url(#clip0_1086_4581)">
<circle cx="45.4746" cy="45.876" r="40.5" fill="white" stroke="#333333" stroke-width="9"/>
<path d="M55.0556 58.8304L65.5867 95.2842C66.4771 98.3661 70.6991 98.7262 72.0986 95.8397L76.9234 85.8885L87.0213 95.5979C88.3954 96.9192 90.5741 96.8978 91.922 95.5499L96.5387 90.9332C97.9605 89.5114 97.8948 87.1867 96.3949 85.8475L85.711 76.3083L95.6443 71.9259C98.615 70.6153 98.3547 66.317 95.2476 65.3744L59.4342 54.5097C56.7777 53.7038 54.2852 56.1633 55.0556 58.8304Z" fill="#177EC9" stroke="white" stroke-width="3"/>
<path d="M43.147 49.2121V52.4386H49.5608C50.2505 52.4386 50.8367 52.6641 51.3194 53.1151C51.8022 53.5314 52.0436 54.1038 52.0436 54.8324C52.0436 55.5262 51.8022 56.0987 51.3194 56.5497C50.8367 56.966 50.2505 57.1741 49.5608 57.1741H43.147V60.8169C43.147 62.1352 42.7677 63.1413 42.0091 63.8352C41.285 64.529 40.3539 64.876 39.216 64.876C38.1125 64.876 37.1987 64.529 36.4746 63.8352C35.7505 63.1413 35.3884 62.1352 35.3884 60.8169V57.1741H33.0091C32.3194 57.1741 31.716 56.966 31.1987 56.5497C30.716 56.0987 30.4746 55.5262 30.4746 54.8324C30.4746 54.1038 30.716 53.5314 31.1987 53.1151C31.716 52.6641 32.3194 52.4386 33.0091 52.4386H35.3884V49.2121H33.0091C32.3194 49.2121 31.716 48.9866 31.1987 48.5356C30.716 48.0846 30.4746 47.5122 30.4746 46.8183C30.4746 46.1245 30.716 45.552 31.1987 45.101C31.716 44.65 32.3194 44.4245 33.0091 44.4245H35.3884V31.6749C35.3884 30.4606 35.6987 29.5239 36.3194 28.8647C36.9746 28.2056 37.9056 27.876 39.1125 27.876H48.0091C50.6298 27.876 52.8712 28.327 54.7332 29.229C56.6298 30.131 58.0608 31.38 59.0263 32.9758C59.9918 34.537 60.4746 36.3237 60.4746 38.3359C60.4746 41.8052 59.3884 44.4939 57.216 46.402C55.0781 48.2754 52.0091 49.2121 48.0091 49.2121H43.147ZM43.0436 44.4245H46.0953C48.4401 44.4245 50.1987 44.0255 51.3712 43.2276C52.5436 42.395 53.1298 41.1113 53.1298 39.3767C53.1298 37.3992 52.5953 35.9768 51.5263 35.1094C50.4574 34.2421 48.8194 33.8085 46.6125 33.8085H43.0436V44.4245Z" fill="#333333"/>
</g>
<defs>
<clipPath id="clip0_1086_4581">
<rect width="100" height="100" fill="white" transform="translate(0.474609 0.875977)"/>
</clipPath>
</defs>
</svg>
