<svg width="91" height="91" viewBox="0 0 91 91" fill="none" xmlns="http://www.w3.org/2000/svg">
<path d="M45.4755 15.123C40.0902 15.123 35.7087 19.5044 35.7087 24.8897V29.7413H26.8284L24.6523 69.733H66.2986L64.1227 29.7413H55.2422V24.8897C55.2422 19.5044 50.861 15.123 45.4755 15.123ZM45.4755 20.395C47.9541 20.395 49.9702 22.4114 49.9702 24.8897V29.7413H40.9807V24.8897C40.9808 22.4114 42.9972 20.395 45.4755 20.395ZM37.3334 52.3733V47.1014H53.6179V52.3733H37.3334Z" fill="#333333"/>
<path d="M84.4257 23.347L89.5288 24.2417L90.4391 19.049L73.993 16.1657L71.1098 32.6116L76.3025 33.5221L77.2028 28.387C80.1509 33.6998 81.688 39.6455 81.688 45.8759C81.688 65.844 65.4428 82.0892 45.4747 82.0892C25.5066 82.0892 9.26122 65.844 9.26122 45.8759C9.26122 25.9078 25.5064 9.66259 45.4745 9.66259C52.4585 9.66259 59.2365 11.6535 65.0753 15.4199L69.8382 8.03618C62.5766 3.35187 54.1516 0.875977 45.4745 0.875977C33.4546 0.875977 22.1542 5.55678 13.6547 14.0562C5.15541 22.5555 0.474609 33.856 0.474609 45.8759C0.474609 57.8958 5.15541 69.1963 13.6549 77.6957C22.1543 86.195 33.4546 90.8758 45.4747 90.8758C57.4948 90.8758 68.7951 86.195 77.2943 77.6957C85.7938 69.1963 90.4746 57.896 90.4746 45.8759C90.4746 37.9484 88.3567 30.1556 84.4257 23.347Z" fill="#177EC9"/>
</svg>
