<svg width="101" height="67" viewBox="0 0 101 67" fill="none" xmlns="http://www.w3.org/2000/svg">
<path d="M100.461 61.7858C100.454 61.5685 100.446 61.3501 100.438 61.1309C100.431 60.9118 100.422 60.692 100.414 60.4711L100.408 60.3059L100.405 60.223L100.404 60.2023L100.402 60.017L100.401 60.0084L100.399 59.9741L100.377 59.6997C100.349 59.3335 100.32 58.9657 100.292 58.5979L100.27 58.3195L100.237 57.9584C100.215 57.7183 100.192 57.4783 100.169 57.2388C100.146 56.9998 100.122 56.761 100.099 56.5231C100.087 56.4043 100.075 56.2857 100.063 56.1672C100.048 56.0577 100.034 55.9483 100.019 55.8389C99.8993 54.9713 99.7922 54.1187 99.6394 53.299C99.5671 52.8889 99.5005 52.4857 99.4256 52.0926C99.3438 51.7005 99.2638 51.3171 99.1859 50.9438C99.0383 50.1966 98.8529 49.4988 98.6967 48.8538C98.6567 48.6928 98.6176 48.5349 98.5794 48.3809C98.5368 48.2276 98.4951 48.0781 98.4546 47.9321C98.3723 47.6409 98.2943 47.3646 98.2208 47.1052C98.1461 46.8462 98.0802 46.603 98.0114 46.3801C97.9404 46.1579 97.8754 45.9537 97.8165 45.7692C97.7293 45.4983 97.6557 45.2701 97.5977 45.0898C97.5119 44.8236 97.2306 44.6739 96.9616 44.7505L80.0549 49.5685C79.7974 49.6419 79.6377 49.8985 79.6867 50.1619C79.7051 50.2602 79.726 50.3728 79.7494 50.4988C79.7735 50.6257 79.8002 50.7663 79.8293 50.9192C79.8567 51.0726 79.8783 51.2406 79.906 51.4182C79.9332 51.596 79.962 51.7853 79.9924 51.9848C80.0073 52.0845 80.0248 52.1861 80.0386 52.2911C80.0506 52.3964 80.0628 52.5043 80.0755 52.6143C80.1225 53.0547 80.1928 53.5269 80.2242 54.0332C80.2449 54.2851 80.2664 54.544 80.2883 54.8081C80.3047 55.0731 80.3129 55.3447 80.3271 55.6196C80.3637 56.1683 80.3567 56.7397 80.3673 57.3159L80.3697 57.5305L80.3621 57.7205C80.3578 57.8471 80.3534 57.974 80.349 58.1012C80.3457 58.2279 80.3422 58.3549 80.3387 58.4822L80.3347 58.6724L80.3232 58.9463C80.3076 59.3149 80.2917 59.6833 80.276 60.0505L80.2643 60.3256L80.2627 60.3599L80.2624 60.3683C80.2626 60.4097 80.2593 60.0408 80.2603 60.2001L80.2589 60.2137L80.2539 60.268L80.2439 60.3765C80.2308 60.521 80.2178 60.6647 80.2048 60.8083C80.1923 60.9513 80.1798 61.0941 80.1675 61.2359C80.1506 61.3771 80.1339 61.5178 80.1171 61.6573C80.0812 61.9363 80.059 62.2126 80.0146 62.4818C79.9757 62.7511 79.9374 63.0157 79.8999 63.2749C79.8551 63.5323 79.8113 63.7842 79.7687 64.0292C79.7302 64.2745 79.6786 64.5107 79.6327 64.7393C79.5847 64.9676 79.5465 65.1891 79.4967 65.3995C79.4482 65.6098 79.4017 65.811 79.3574 66.0026C79.3355 66.0971 79.3142 66.1892 79.2936 66.2789C79.2723 66.3558 79.2518 66.4303 79.2317 66.5026C79.2199 66.5468 79.2087 66.5883 79.1973 66.6311H99.875C100.152 66.6311 100.383 66.4137 100.394 66.1367L100.394 66.1318C100.411 65.7467 100.429 65.3513 100.447 64.9471C100.454 64.5433 100.462 64.1307 100.47 63.7111C100.482 63.292 100.469 62.866 100.468 62.4352C100.466 62.22 100.464 62.0035 100.461 61.7858Z" fill="#177EC9"/>
<path d="M95.0839 40.0832C95.3612 39.9715 95.4877 39.6503 95.3599 39.3801C95.303 39.26 95.2366 39.1195 95.1613 38.9607C95.0903 38.8114 95.0117 38.6462 94.9265 38.4663C94.8161 38.2413 94.6967 37.9982 94.569 37.7383C94.4404 37.4794 94.3036 37.204 94.1592 36.9137C94.0861 36.7627 94.0142 36.6382 93.9389 36.4965C93.864 36.358 93.7872 36.2163 93.7088 36.0715C93.5512 35.7827 93.3901 35.4807 93.2171 35.1714C93.0385 34.8655 92.8539 34.5491 92.6641 34.2239C92.5689 34.0617 92.4724 33.8971 92.3747 33.7308C92.2725 33.567 92.169 33.4012 92.0645 33.2337C91.8543 32.8999 91.6394 32.5587 91.4211 32.212C90.9604 31.533 90.5018 30.8229 89.9899 30.1319C89.8642 29.9579 89.7378 29.7832 89.6111 29.6081L89.4206 29.3456L89.2223 29.0874C88.957 28.7439 88.6907 28.3992 88.4244 28.0545C88.1533 27.7138 87.8729 27.3802 87.5981 27.0454C87.4591 26.879 87.3245 26.7103 87.1827 26.5478C87.0405 26.3858 86.8988 26.2242 86.7575 26.0633C86.6161 25.9029 86.4753 25.7429 86.3352 25.5839C86.196 25.4242 86.0556 25.2673 85.9107 25.1155C85.624 24.8101 85.3408 24.5085 85.0623 24.2118C84.7834 23.916 84.4945 23.638 84.2197 23.3601C83.9428 23.0837 83.6738 22.8122 83.399 22.5601C83.1274 22.3058 82.8629 22.0584 82.6074 21.819C82.3528 21.5792 82.0929 21.3613 81.8508 21.1455C81.6067 20.932 81.3727 20.7275 81.1502 20.5329C80.922 20.3448 80.7055 20.1665 80.5021 19.999C80.2985 19.832 80.1081 19.6758 79.932 19.5314C79.7556 19.3875 79.5868 19.2627 79.4381 19.1464C79.2215 18.9802 79.0385 18.8398 78.8932 18.7282C78.6716 18.5581 78.3557 18.5944 78.1776 18.8099L69.1035 29.7937C68.9324 30.0008 68.9471 30.3036 69.1379 30.4926C69.2138 30.5676 69.3014 30.6543 69.3999 30.7519C69.4943 30.8467 69.6025 30.9471 69.7135 31.0644C69.8244 31.1816 69.9442 31.3084 70.0723 31.4438C70.2007 31.5785 70.3371 31.7219 70.4808 31.873C70.6194 32.029 70.7652 32.1933 70.9173 32.3646C71.0675 32.5374 71.2317 32.709 71.3879 32.9004C71.5455 33.0899 71.7083 33.2857 71.8759 33.487C72.0465 33.6847 72.2094 33.8993 72.378 34.1162C72.5449 34.3345 72.7232 34.5498 72.8908 34.7806C73.0584 35.0107 73.2289 35.2446 73.4014 35.4814C73.4894 35.598 73.5729 35.7195 73.6551 35.8429C73.7382 35.9654 73.8218 36.0884 73.9057 36.212C73.9897 36.3349 74.0742 36.4585 74.1587 36.5825C74.2432 36.7065 74.3205 36.8362 74.4021 36.963C74.5623 37.219 74.7284 37.4712 74.8859 37.729C75.0394 37.9893 75.193 38.2498 75.3458 38.509L75.4605 38.7025L75.568 38.9001C75.6398 39.0312 75.7113 39.1622 75.7825 39.2924C76.0767 39.807 76.3251 40.3376 76.585 40.8362C76.7039 41.0917 76.8208 41.3429 76.9354 41.589C76.9926 41.7115 77.0493 41.8328 77.1053 41.9525C77.1572 42.0744 77.2083 42.1947 77.2588 42.3135C77.3604 42.55 77.4592 42.7803 77.5548 43.0027C77.6432 43.2283 77.7284 43.4462 77.8103 43.6552C77.8514 43.7596 77.8914 43.8618 77.9305 43.9617C77.9676 44.0592 78.0135 44.1647 78.0381 44.2458C78.0965 44.4163 78.1518 44.5781 78.2038 44.7301C78.2568 44.881 78.3066 45.0222 78.3525 45.1528C78.4128 45.3329 78.4682 45.4979 78.5182 45.6472C78.5739 45.8139 78.6229 45.9613 78.6651 46.0876C78.7596 46.3711 79.0735 46.5156 79.3508 46.4043L95.0839 40.0832Z" fill="#177EC9"/>
<path d="M48.875 20.464C49.0125 20.4827 49.1645 20.5034 49.3302 20.5261C49.4948 20.5547 49.6729 20.5858 49.8631 20.6189C50.053 20.6516 50.2551 20.6862 50.4681 20.7228C50.6531 20.7536 50.8448 20.7982 51.0441 20.8399L56.7708 9.12597C56.4869 9.08165 56.2053 9.03765 55.9294 8.9946C55.7404 8.9665 55.5543 8.93418 55.3689 8.91102C55.1835 8.8886 55.0004 8.86639 54.8196 8.8445C54.4587 8.80165 54.1076 8.75986 53.7682 8.71955C53.4278 8.69039 53.0988 8.66218 52.7831 8.63513C52.4673 8.61092 52.1662 8.57902 51.8779 8.56534C51.5901 8.55123 51.317 8.53776 51.0605 8.52513C50.8042 8.51302 50.5644 8.50176 50.3428 8.49123C50.121 8.48765 49.9172 8.48439 49.7331 8.48144C49.4742 8.47829 49.2544 8.47565 49.0782 8.47355C48.7987 8.47018 48.5674 8.6886 48.5541 8.96776L48.0319 19.8706C48.019 20.1392 48.2128 20.3731 48.4792 20.4097C48.5927 20.4252 48.725 20.4434 48.875 20.464Z" fill="#177EC9"/>
<path d="M64.2671 26.4673C64.421 26.5792 64.5669 26.6853 64.704 26.7852C64.8412 26.8835 64.9697 26.9755 65.0886 27.0606C65.1401 27.096 65.225 27.1604 65.2944 27.212C65.3658 27.2654 65.4339 27.3162 65.4985 27.3644C65.6394 27.4696 65.7638 27.5624 65.8704 27.6419C66.1099 27.8206 66.4499 27.7602 66.614 27.5103L74.0908 16.1213C74.2551 15.8714 74.1754 15.5353 73.916 15.3866C73.8006 15.3205 73.666 15.2432 73.5136 15.1557C73.4436 15.1155 73.3699 15.0733 73.2924 15.0289C73.2081 14.9812 73.12 14.9313 73.0281 14.8793C72.8154 14.7621 72.5853 14.6354 72.3395 14.4999C72.0936 14.3659 71.8318 14.2234 71.556 14.073C71.2932 13.9413 71.017 13.8029 70.7287 13.6584C70.4392 13.5171 70.1438 13.3599 69.8271 13.2173C69.5118 13.0729 69.1859 12.9235 68.851 12.77C68.5182 12.6129 68.1671 12.4703 67.8107 12.3206C67.4528 12.1741 67.0927 12.0138 66.7166 11.8725C66.6213 11.8364 66.5246 11.7998 66.4286 11.7634L63.2031 25.7632C63.3814 25.8752 63.5494 25.9939 63.7149 26.1011C63.9075 26.2287 64.0917 26.351 64.2671 26.4673Z" fill="#177EC9"/>
<path d="M38.8355 20.4068C38.9799 20.3878 39.1217 20.3642 39.2633 20.3493C39.4049 20.3349 39.5448 20.3207 39.6827 20.3066C39.9579 20.2781 40.2256 20.2503 40.4847 20.2234C40.7444 20.206 40.9955 20.1892 41.2364 20.1729C41.3567 20.1647 41.4743 20.1567 41.5894 20.1488C41.7041 20.1412 41.8191 20.1314 41.9176 20.1313C42.1206 20.1259 42.3134 20.1209 42.4943 20.1162C42.6748 20.1105 42.8434 20.1052 42.9996 20.1002C43.1921 20.0989 43.369 20.0978 43.5285 20.0967C43.7043 20.0958 43.8597 20.0949 43.9925 20.0942C44.2915 20.0926 44.5264 19.8395 44.5069 19.5412L43.8338 9.27065C43.8141 8.97234 43.5482 8.75202 43.2517 8.7895C43.1198 8.80613 42.9658 8.8256 42.7914 8.8476C42.6297 8.86813 42.4506 8.89097 42.2557 8.91581C42.0254 8.95002 41.7763 8.98686 41.5101 9.02634C41.2448 9.06676 40.9622 9.10981 40.6644 9.15518C40.512 9.17665 40.3717 9.20518 40.2244 9.23297C40.0776 9.26097 39.9274 9.28971 39.774 9.31897C39.4678 9.37813 39.149 9.43981 38.8187 9.5036C38.491 9.57823 38.152 9.65549 37.8037 9.73476C37.6299 9.77465 37.4537 9.81518 37.2754 9.85623C37.0973 9.89792 36.9187 9.94886 36.7375 9.9957C36.3759 10.092 36.0068 10.1904 35.6312 10.2904C35.2594 10.4025 34.8814 10.5164 34.4989 10.6318C34.3081 10.6909 34.1154 10.7465 33.9238 10.8096C33.7331 10.8748 33.541 10.9401 33.3484 11.0059C33.156 11.0718 32.963 11.1379 32.7694 11.2043C32.5757 11.2702 32.3817 11.3364 32.1904 11.4119C31.8067 11.5583 31.4215 11.7054 31.0364 11.8524C30.6529 12.0025 30.2757 12.1689 29.8977 12.3262C29.7093 12.4065 29.5204 12.484 29.3342 12.5664C29.1492 12.6518 28.9649 12.7369 28.7812 12.8217C28.5979 12.9065 28.4153 12.9912 28.2337 13.0753C28.0522 13.1593 27.8713 13.242 27.6955 13.3333C27.3427 13.5114 26.9942 13.6874 26.6514 13.8604C26.3086 14.0323 25.9818 14.222 25.6573 14.3966C25.3343 14.5745 25.0166 14.7442 24.7169 14.9271C24.4155 15.1058 24.1224 15.2798 23.8388 15.448C23.5544 15.6139 23.2906 15.7931 23.0321 15.955C22.7753 16.1195 22.5293 16.2773 22.2953 16.4273C22.0664 16.5844 21.8491 16.7335 21.645 16.8736C21.4414 17.0138 21.2509 17.145 21.0747 17.2663C20.8987 17.3877 20.743 17.508 20.5995 17.612C20.4051 17.7556 20.2391 17.8781 20.1048 17.9773C19.8805 18.1428 19.8279 18.4556 19.9847 18.6862L24.2494 24.9563C24.4012 25.1795 24.698 25.2495 24.933 25.1167C25.0413 25.0557 25.1693 24.9834 25.3153 24.901C25.4426 24.8306 25.5803 24.7475 25.7357 24.6665C25.8911 24.5855 26.0591 24.4981 26.2386 24.4046C26.4175 24.311 26.6081 24.2115 26.8088 24.1065C27.013 24.0086 27.2276 23.9057 27.4516 23.7983C27.6767 23.6935 27.905 23.5734 28.1512 23.4686C28.3955 23.3614 28.6482 23.2505 28.9079 23.1365C29.1651 23.0181 29.4375 22.9146 29.7131 22.8041C29.9901 22.6967 30.2676 22.5753 30.5583 22.4726C30.8476 22.3683 31.1419 22.2623 31.4397 22.1549C31.5874 22.0988 31.7394 22.0514 31.8917 22.0027C32.0437 21.9538 32.1966 21.9046 32.3499 21.8553C32.503 21.8058 32.6567 21.7561 32.8108 21.7062C32.9657 21.6591 33.1229 21.617 33.279 21.572C33.5926 21.4853 33.904 21.389 34.2198 21.3084C34.5358 21.2302 34.8518 21.152 35.1666 21.0742C35.3228 21.0326 35.4813 21.0001 35.6391 20.9676C35.7966 20.9344 35.9536 20.9014 36.1101 20.8684C36.2661 20.8353 36.4216 20.8023 36.5763 20.7695C36.7314 20.7385 36.8873 20.7146 37.0411 20.6869C37.3487 20.6336 37.6525 20.5807 37.9514 20.5289C38.2514 20.4876 38.5464 20.4467 38.8355 20.4068Z" fill="#177EC9"/>
<path d="M9.75715 28.5138C9.64536 28.6719 9.53315 28.8307 9.42041 28.9902C9.30799 29.1495 9.19515 29.3095 9.08188 29.4701C8.96915 29.6308 8.86367 29.7975 8.75399 29.9615C8.53778 30.2918 8.31652 30.6194 8.10473 30.9533C7.89789 31.2901 7.69104 31.6268 7.48504 31.9623L7.33136 32.2134L7.18547 32.4687C7.08852 32.6384 6.99189 32.8077 6.89557 32.9763C6.50189 33.645 6.15989 34.3286 5.81231 34.9778C5.65052 35.3089 5.49137 35.6345 5.33558 35.9532C5.25831 36.1123 5.18179 36.27 5.10631 36.4256C5.03526 36.5833 4.96516 36.7392 4.89589 36.8931C4.758 37.2002 4.62389 37.4992 4.4941 37.7882C4.37305 38.081 4.256 38.3637 4.14368 38.6351C4.03358 38.9073 3.92232 39.1649 3.82747 39.4149C3.7339 39.6651 3.64505 39.9025 3.56147 40.1256C3.47832 40.3484 3.40053 40.557 3.32863 40.7498C3.26221 40.9445 3.20127 41.1234 3.14611 41.285C3.07453 41.4974 3.01305 41.6797 2.96284 41.829C2.8739 42.0927 3.00916 42.379 3.26916 42.4786L7.23863 44.0004C7.49126 44.0973 7.77578 43.9842 7.89252 43.7401C7.95041 43.6193 8.01957 43.4745 8.09904 43.3083C8.16494 43.1714 8.23778 43.0197 8.31725 42.8545C8.40168 42.6917 8.49294 42.5159 8.59052 42.3278C8.68778 42.1403 8.79115 41.9404 8.9002 41.7299C9.01009 41.52 9.13662 41.3047 9.2622 41.0774C9.38936 40.8513 9.52188 40.6156 9.65904 40.3716C9.80357 40.1323 9.95293 39.8848 10.1066 39.6302C10.1831 39.5032 10.2607 39.3744 10.3393 39.2441C10.4219 39.1162 10.5056 38.987 10.5901 38.8559C10.7591 38.5949 10.9319 38.3283 11.1076 38.057C11.4808 37.5286 11.8459 36.972 12.2584 36.4353C12.3591 36.2996 12.4603 36.1635 12.5618 36.027L12.7139 35.822L12.8732 35.6216C13.0855 35.3544 13.2985 35.0863 13.5116 34.8181C13.7285 34.5533 13.9537 34.2953 14.1725 34.0351C14.2835 33.9059 14.39 33.7742 14.5036 33.6486C14.6172 33.5232 14.7305 33.3982 14.8433 33.2736C14.956 33.1492 15.0681 33.0253 15.1797 32.9019C15.2902 32.7779 15.4018 32.6562 15.5177 32.5394C15.7457 32.3033 15.9709 32.0701 16.1925 31.8405C16.4137 31.6113 16.6445 31.3987 16.8624 31.1837C17.082 30.9704 17.2944 30.7599 17.5131 30.5669C17.7283 30.3711 17.9375 30.1807 18.1401 29.9964C18.3409 29.811 18.5479 29.6455 18.739 29.4794C18.9314 29.3155 19.1159 29.1585 19.2912 29.0091C19.4634 28.8728 19.6268 28.7436 19.7803 28.6219C19.9329 28.5004 20.0758 28.3866 20.2079 28.2813C20.2685 28.2312 20.3506 28.1712 20.42 28.1185C20.4911 28.0647 20.559 28.0136 20.6234 27.965C20.7638 27.859 20.8876 27.7656 20.9938 27.6856C21.2324 27.5055 21.2693 27.1621 21.0752 26.9347L16.5558 21.6401C16.3617 21.4128 16.0167 21.3954 15.8014 21.6028C15.7058 21.695 15.5939 21.8026 15.4673 21.9246C15.4092 21.9805 15.348 22.0396 15.2838 22.1014C15.2184 22.1649 15.1562 22.2226 15.0751 22.3055C14.9202 22.4618 14.7527 22.631 14.5737 22.8116C14.3956 22.9923 14.206 23.1846 14.0061 23.3874C13.8203 23.5886 13.6249 23.8002 13.4211 24.0209C13.2199 24.2434 13.0028 24.4675 12.7928 24.7132C12.582 24.9576 12.3641 25.2103 12.14 25.47C11.9131 25.7266 11.6937 26.0023 11.4679 26.282C11.2438 26.5631 11.0076 26.8437 10.7822 27.1409C10.5575 27.4382 10.329 27.7404 10.0979 28.0465C9.98041 28.1982 9.86809 28.3548 9.75715 28.5138Z" fill="#177EC9"/>
<path d="M1.54355 47.0772C1.51713 47.2073 1.48619 47.3597 1.45113 47.5319C1.41903 47.69 1.38345 47.8652 1.34471 48.0558C1.30671 48.2508 1.26956 48.481 1.22808 48.7159C1.18724 48.9532 1.14387 49.2056 1.09819 49.4717C1.07608 49.6044 1.05082 49.7414 1.02987 49.8796C1.01124 50.017 0.992292 50.1574 0.972819 50.3007C0.898714 50.8747 0.801135 51.4922 0.744925 52.152C0.712293 52.4808 0.678819 52.8184 0.644609 53.1635C0.616399 53.5091 0.597556 53.863 0.573241 54.2217C0.516399 54.9387 0.505978 55.6822 0.482294 56.4345L0.474609 56.7172L0.475978 57.0011C0.47703 57.1907 0.478083 57.3806 0.479136 57.571C0.480294 57.7612 0.481451 57.9517 0.482504 58.1423L0.484294 58.4283L0.495241 58.7146C0.510715 59.0953 0.526188 59.4762 0.541662 59.8556L0.553346 60.1393L0.556925 60.2312L0.561978 60.2996L0.572083 60.4363C0.585557 60.6187 0.598925 60.8004 0.612293 60.9816C0.625662 61.1628 0.63903 61.3431 0.652188 61.5225C0.670398 61.7096 0.688398 61.8961 0.706504 62.0814C0.724714 62.2664 0.742819 62.4502 0.760819 62.633C0.769872 62.724 0.778925 62.815 0.787977 62.9054C0.79924 62.9944 0.810503 63.0832 0.821661 63.1716C0.866503 63.5242 0.910608 63.8711 0.953766 64.2107C1.00587 64.5487 1.05682 64.8795 1.10629 65.2014C1.15261 65.5232 1.21229 65.8344 1.26713 66.1354C1.27166 66.1595 1.27619 66.1833 1.28061 66.2072C1.3264 66.4533 1.5405 66.6315 1.79071 66.6315H3.18976C3.4885 66.6315 3.72555 66.38 3.70797 66.0819C3.70323 66.0023 3.69839 65.9219 3.69302 65.8408C3.67555 65.5506 3.6545 65.2515 3.64776 64.9428C3.63766 64.6345 3.62734 64.3179 3.61671 63.9943C3.61471 63.671 3.61271 63.3405 3.61071 63.0044C3.61018 62.9205 3.60966 62.8362 3.60913 62.7518C3.61092 62.6685 3.61281 62.5849 3.61471 62.5008C3.61839 62.3332 3.62208 62.1642 3.62587 61.9942C3.62955 61.8247 3.63334 61.6538 3.63713 61.4821C3.64555 61.3024 3.65387 61.1217 3.66239 60.9404C3.67081 60.7591 3.67934 60.577 3.68776 60.3943L3.69418 60.2572L3.69734 60.1886L3.69776 60.1799C3.69776 60.1581 3.69818 60.2 3.69839 60.1929L3.69966 60.1762L3.70229 60.1432L3.72355 59.8776C3.75176 59.5234 3.78008 59.1681 3.8085 58.8127L3.83018 58.5467L3.86081 58.2813C3.88123 58.1047 3.90155 57.9282 3.92187 57.7521C3.94208 57.5761 3.96229 57.4006 3.98239 57.2256L4.01239 56.9637L4.05123 56.7036C4.15776 56.012 4.24829 55.3317 4.38092 54.6803C4.44313 54.354 4.49881 54.033 4.56271 53.7205C4.63229 53.4092 4.70028 53.1047 4.76649 52.8082C4.88902 52.2145 5.04786 51.6625 5.17713 51.1508C5.21028 51.0231 5.2427 50.8979 5.27439 50.7758C5.30786 50.6555 5.34397 50.5416 5.37723 50.4288C5.44428 50.2042 5.50797 49.9913 5.56776 49.791C5.62891 49.5891 5.67912 49.4086 5.73765 49.2274C5.79902 49.0426 5.85523 48.8732 5.90618 48.72C5.96154 48.5531 6.01049 48.4057 6.05239 48.2794C6.1466 47.9959 5.98207 47.692 5.69323 47.6151L2.18597 46.6798C1.89703 46.6027 1.60313 46.7843 1.54355 47.0772Z" fill="#177EC9"/>
<path d="M41.2456 65.2558C42.3866 65.8135 43.5954 66.078 44.7854 66.078C47.7725 66.078 50.6432 64.4136 52.0435 61.5492C52.3132 60.9979 52.522 60.3891 52.6578 59.8159L60.8237 24.372L63.9336 10.8739L65.8603 2.51208C66.0845 1.53892 65.3104 0.875977 64.5337 0.875977C64.0791 0.875977 63.6235 1.10324 63.3667 1.6284L59.4462 9.64764L53.6626 21.4777L37.5389 54.4578C35.5807 58.4631 37.2403 63.2976 41.2456 65.2558ZM45.0847 53.8417C47.2699 53.8417 49.0413 55.613 49.0413 57.7983C49.0413 59.9833 47.2699 61.7549 45.0847 61.7549C42.8996 61.7549 41.1281 59.9833 41.1281 57.7983C41.1281 55.6128 42.8996 53.8417 45.0847 53.8417Z" fill="#333333"/>
</svg>
