<svg width="94" height="101" viewBox="0 0 94 101" fill="none" xmlns="http://www.w3.org/2000/svg">
<g clip-path="url(#clip0_1086_4585)">
<path d="M42.536 6.23669C39.9503 5.08752 36.9989 5.08752 34.4132 6.23669L6.41325 18.6811C2.80196 20.2861 0.474609 23.8673 0.474609 27.8192V46.6538C0.474609 69.2533 15.5078 90.3827 36.1127 96.6712C37.6516 97.1409 39.2976 97.1409 40.8365 96.6712C61.4414 90.3827 76.4746 69.2533 76.4746 46.6538V27.8192C76.4746 23.8673 74.1473 20.2861 70.536 18.6811L42.536 6.23669ZM38.4746 88.5595V50.8762H8.91892V26.8095L38.4746 13.6783V50.8338H68.0301C65.7923 68.2295 54.2023 83.725 38.4746 88.5595Z" fill="#333333"/>
<path d="M4.97461 27.8192C4.97461 25.6457 6.25465 23.676 8.24086 22.7932L36.2409 10.3488C37.663 9.7168 39.2863 9.7168 40.7084 10.3488L68.7084 22.7932C70.6946 23.676 71.9746 25.6457 71.9746 27.8192V46.6538C71.9746 67.4132 58.1049 86.6961 39.523 92.3672C38.8402 92.5756 38.109 92.5756 37.4263 92.3672C18.8444 86.6961 4.97461 67.4132 4.97461 46.6538V27.8192Z" stroke="#177EC9" stroke-width="9"/>
</g>
<defs>
<clipPath id="clip0_1086_4585">
<rect width="93" height="100" fill="white" transform="translate(0.474609 0.875977)"/>
</clipPath>
</defs>
</svg>
