<svg width="101" height="101" viewBox="0 0 101 101" fill="none" xmlns="http://www.w3.org/2000/svg">
<g clip-path="url(#clip0_1153_4563)">
<circle cx="45.4746" cy="45.876" r="40.5" fill="white" stroke="#333333" stroke-width="9"/>
<path fill-rule="evenodd" clip-rule="evenodd" d="M40.3387 22.0138C37.9145 22.5984 35.788 23.798 33.7817 25.4698L33.5969 25.6239L33.4337 25.8007C31.3572 28.0502 30.2225 30.6052 30.0679 33.2341C29.9148 35.8357 30.739 38.2179 32.0725 40.1229C33.1236 41.6244 34.8088 42.5483 36.0425 43.1406C37.4083 43.7963 39.0479 44.4112 40.6166 44.9976L40.6218 44.9996C43.9335 46.2376 47.2446 47.4754 49.8565 49.2167C50.5542 49.6819 51.7921 50.9125 52.3588 52.3224C52.6179 52.9671 52.6919 53.5354 52.6171 54.0427C52.5464 54.5219 52.3094 55.189 51.5497 56.0179C50.3447 57.3325 47.9217 58.1742 44.6215 57.8654C41.0248 57.5288 37.4696 55.8951 35.4422 53.6649L30 58.6124C32.7288 61.6141 36.6198 63.6521 40.6014 64.6248V69.2726H47.9563V65.1781C51.2838 64.834 54.5778 63.5991 56.9715 60.9877C58.6195 59.1898 59.5864 57.1973 59.8934 55.1155C60.1961 53.0617 59.8213 51.1673 59.183 49.5793C57.9548 46.5237 55.6028 44.2081 53.9364 43.0972C50.6053 40.8763 46.6085 39.384 43.5346 38.2363C43.419 38.1932 43.3048 38.1505 43.192 38.1084C41.5464 37.4932 40.2361 36.9953 39.2258 36.5102C38.3266 36.0785 38.0625 35.8349 38.0551 35.8425C38.0551 35.8426 38.055 35.8426 38.055 35.8427C37.5799 35.1392 37.3674 34.392 37.4101 33.666C37.4504 32.9815 37.7324 32.0522 38.6839 30.9612C40.4983 29.4968 42.0381 28.9383 43.9607 28.9673C46.0696 28.9991 48.9342 29.745 53.3095 31.663L56.2624 24.9269C53.1273 23.5526 50.3054 22.5469 47.6937 22.0227V17H40.3387V22.0138Z" fill="#333333"/>
<path d="M55.0556 58.8304L65.5867 95.2842C66.4771 98.3661 70.6991 98.7262 72.0986 95.8397L76.9234 85.8885L87.0213 95.5979C88.3954 96.9192 90.5741 96.8978 91.922 95.5499L96.5387 90.9332C97.9605 89.5114 97.8948 87.1867 96.3949 85.8475L85.711 76.3083L95.6443 71.9259C98.615 70.6153 98.3547 66.317 95.2476 65.3744L59.4342 54.5097C56.7777 53.7038 54.2852 56.1633 55.0556 58.8304Z" fill="#177EC9" stroke="white" stroke-width="3"/>
</g>
<defs>
<clipPath id="clip0_1153_4563">
<rect width="100" height="100" fill="white" transform="translate(0.474609 0.875977)"/>
</clipPath>
</defs>
</svg>
