<svg width="301" height="301" viewBox="0 0 301 301" fill="none" xmlns="http://www.w3.org/2000/svg">
<path d="M256.926 179.723V262.122C256.926 264.884 254.688 267.122 251.926 267.122H159.85" stroke="#E31E24" stroke-width="4" stroke-linecap="square"/>
<path d="M256.926 63.5935V122.167" stroke="#E31E24" stroke-width="4" stroke-linecap="square"/>
<path d="M285.957 63.5938V93.2308" stroke="#E31E24" stroke-width="4" stroke-linecap="square"/>
<path d="M271.441 150.993H280.958C283.719 150.993 285.958 153.232 285.958 155.993V257.445" stroke="#E31E24" stroke-width="4" stroke-linecap="square"/>
<path d="M198.559 286.477H257.228" stroke="#E31E24" stroke-width="4" stroke-linecap="square"/>
<path d="M44.0244 102.303V112.122C44.0244 114.883 41.7859 117.122 39.0244 117.122H19.9922C17.2308 117.122 14.9922 119.36 14.9922 122.122V180.327" stroke="#E31E24" stroke-width="4" stroke-linecap="square"/>
<path d="M92.7136 25.187H87.7337C84.9723 25.187 82.7337 27.4256 82.7337 30.187V54.058C82.7337 56.8194 80.4952 59.058 77.7337 59.058H68.3789C65.6175 59.058 63.3789 61.2966 63.3789 64.058V83.4983" stroke="#E31E24" stroke-width="4" stroke-linecap="square"/>
<path d="M14.9922 39.4004V63.7351C14.9922 66.4965 17.2308 68.7351 19.9922 68.7351H39.0244C41.7859 68.7351 44.0244 70.9737 44.0244 73.7351V83.5536" stroke="#E31E24" stroke-width="4" stroke-linecap="square"/>
<path d="M44.0234 174.884V214.199" stroke="#E31E24" stroke-width="4" stroke-linecap="square"/>
<path d="M72.752 199.38H89.385" stroke="#E31E24" stroke-width="4" stroke-linecap="square"/>
<path d="M210.957 199.38H228.195" stroke="#E31E24" stroke-width="4" stroke-linecap="square"/>
<path d="M210.957 180.025H228.195" stroke="#E31E24" stroke-width="4" stroke-linecap="square"/>
<path d="M210.957 160.67H228.195" stroke="#E31E24" stroke-width="4" stroke-linecap="square"/>
<path d="M210.957 141.316H228.195" stroke="#E31E24" stroke-width="4" stroke-linecap="square"/>
<path d="M210.957 121.961H228.195" stroke="#E31E24" stroke-width="4" stroke-linecap="square"/>
<path d="M210.957 102.606H228.195" stroke="#E31E24" stroke-width="4" stroke-linecap="square"/>
<path d="M72.752 102.606H90.2923" stroke="#E31E24" stroke-width="4" stroke-linecap="square"/>
<path d="M72.752 121.961H89.9899" stroke="#E31E24" stroke-width="4" stroke-linecap="square"/>
<path d="M72.752 141.316H89.6874" stroke="#E31E24" stroke-width="4" stroke-linecap="square"/>
<path d="M72.752 160.67H89.9899" stroke="#E31E24" stroke-width="4" stroke-linecap="square"/>
<path d="M72.752 180.025H90.2923" stroke="#E31E24" stroke-width="4" stroke-linecap="square"/>
<path d="M198.982 89.0535V72.6356" stroke="#E31E24" stroke-width="4" stroke-linecap="square"/>
<path d="M179.578 89.0535V72.6356" stroke="#E31E24" stroke-width="4" stroke-linecap="square"/>
<path d="M160.176 89.0535V72.6356" stroke="#E31E24" stroke-width="4" stroke-linecap="square"/>
<path d="M140.773 87.561V72.6356" stroke="#E31E24" stroke-width="4" stroke-linecap="square"/>
<path d="M121.441 90.4785V72.6357" stroke="#E31E24" stroke-width="4" stroke-linecap="square"/>
<path d="M102.086 90.1762V72.6357" stroke="#E31E24" stroke-width="4" stroke-linecap="square"/>
<path d="M198.982 229.351V211.441" stroke="#E31E24" stroke-width="4" stroke-linecap="square"/>
<path d="M179.578 229.351V211.441" stroke="#E31E24" stroke-width="4" stroke-linecap="square"/>
<path d="M160.176 229.351V211.441" stroke="#E31E24" stroke-width="4" stroke-linecap="square"/>
<path d="M140.797 229.586V211.441" stroke="#E31E24" stroke-width="4" stroke-linecap="square"/>
<path d="M121.441 229.284V211.441" stroke="#E31E24" stroke-width="4" stroke-linecap="square"/>
<path d="M102.086 228.981V211.441" stroke="#E31E24" stroke-width="4" stroke-linecap="square"/>
<path d="M179.507 150.691L179.506 175.026C179.506 177.787 177.268 180.026 174.506 180.026H150.172" stroke="#E31E24" stroke-width="4" stroke-linecap="square"/>
<circle cx="179.508" cy="121.961" r="12.5161" stroke="#333333" stroke-width="4"/>
<circle cx="14.9907" cy="15.5093" r="12.5161" stroke="#333333" stroke-width="4"/>
<circle cx="121.442" cy="25.1867" r="12.5161" stroke="#333333" stroke-width="4"/>
<circle cx="92.4107" cy="267.123" r="12.5161" stroke="#333333" stroke-width="4"/>
<circle cx="131.12" cy="267.123" r="12.5161" stroke="#333333" stroke-width="4"/>
<circle cx="14.9907" cy="209.057" r="12.5161" stroke="#333333" stroke-width="4"/>
<circle cx="44.0239" cy="146.154" r="12.5161" stroke="#333333" stroke-width="4"/>
<circle cx="285.958" cy="286.477" r="12.5161" stroke="#333333" stroke-width="4"/>
<circle cx="285.958" cy="121.961" r="12.5161" stroke="#333333" stroke-width="4"/>
<circle cx="256.926" cy="150.993" r="12.5161" stroke="#333333" stroke-width="4"/>
<circle cx="121.442" cy="180.026" r="12.5161" stroke="#333333" stroke-width="4"/>
<rect x="89.5703" y="90.0894" width="121.806" height="121.806" rx="3" stroke="#E31E24" stroke-width="4"/>
<path d="M121.441 151.218V126.577C121.441 123.816 123.68 121.577 126.441 121.577L150.776 121.577" stroke="#E31E24" stroke-width="4" stroke-linecap="square"/>
<rect x="147.635" y="2.99316" width="63.7419" height="44.3871" rx="3" stroke="#333333" stroke-width="4"/>
<rect x="164.992" y="20.3481" width="9.67742" height="9.67742" rx="4.83871" fill="#333333"/>
<rect x="184.346" y="20.348" width="9.67742" height="9.67742" rx="4.83871" fill="#333333"/>
<rect x="225.055" y="2.99316" width="63.7419" height="44.3871" rx="3" stroke="#333333" stroke-width="4"/>
<rect x="242.41" y="20.348" width="9.67742" height="9.67742" rx="4.83871" fill="#333333"/>
<rect x="261.766" y="20.3481" width="9.67742" height="9.67742" rx="4.83871" fill="#333333"/>
<path d="M213.379 25.187H223.359" stroke="#333333" stroke-width="4" stroke-linecap="square"/>
<rect x="2.47461" y="244.929" width="63.7419" height="44.3871" rx="3" stroke="#333333" stroke-width="4"/>
<rect x="19.8281" y="262.284" width="9.67742" height="9.67742" rx="4.83871" fill="#333333"/>
<path d="M48.8633 291.316H58.5407V298.993C58.5407 300.098 57.6453 300.993 56.5407 300.993H50.8633C49.7587 300.993 48.8633 300.098 48.8633 298.993V291.316Z" fill="#E31E24"/>
<path d="M48.8633 291.316H58.5407V298.993C58.5407 300.098 57.6453 300.993 56.5407 300.993H50.8633C49.7587 300.993 48.8633 300.098 48.8633 298.993V291.316Z" fill="#E31E24"/>
<path d="M29.5078 291.316H39.1852V298.993C39.1852 300.098 38.2898 300.993 37.1852 300.993H31.5078C30.4032 300.993 29.5078 300.098 29.5078 298.993V291.316Z" fill="#E31E24"/>
<path d="M29.5078 291.316H39.1852V298.993C39.1852 300.098 38.2898 300.993 37.1852 300.993H31.5078C30.4032 300.993 29.5078 300.098 29.5078 298.993V291.316Z" fill="#E31E24"/>
<path d="M10.1523 291.316H19.8298V298.993C19.8298 300.098 18.9343 300.993 17.8298 300.993H12.1523C11.0478 300.993 10.1523 300.098 10.1523 298.993V291.316Z" fill="#E31E24"/>
<path d="M10.1523 291.316H19.8298V298.993C19.8298 300.098 18.9343 300.993 17.8298 300.993H12.1523C11.0478 300.993 10.1523 300.098 10.1523 298.993V291.316Z" fill="#E31E24"/>
<path d="M48.8633 235.252C48.8633 234.147 49.7587 233.252 50.8633 233.252H56.5407C57.6453 233.252 58.5407 234.147 58.5407 235.252V242.929H48.8633V235.252Z" fill="#E31E24"/>
<path d="M48.8633 235.252C48.8633 234.147 49.7587 233.252 50.8633 233.252H56.5407C57.6453 233.252 58.5407 234.147 58.5407 235.252V242.929H48.8633V235.252Z" fill="#E31E24"/>
<path d="M29.5078 235.252C29.5078 234.147 30.4032 233.252 31.5078 233.252H37.1852C38.2898 233.252 39.1852 234.147 39.1852 235.252V242.929H29.5078V235.252Z" fill="#E31E24"/>
<path d="M29.5078 235.252C29.5078 234.147 30.4032 233.252 31.5078 233.252H37.1852C38.2898 233.252 39.1852 234.147 39.1852 235.252V242.929H29.5078V235.252Z" fill="#E31E24"/>
<path d="M10.1523 235.252C10.1523 234.147 11.0478 233.252 12.1523 233.252H17.8298C18.9343 233.252 19.8298 234.147 19.8298 235.252V242.929H10.1523V235.252Z" fill="#E31E24"/>
<path d="M10.1523 235.252C10.1523 234.147 11.0478 233.252 12.1523 233.252H17.8298C18.9343 233.252 19.8298 234.147 19.8298 235.252V242.929H10.1523V235.252Z" fill="#E31E24"/>
<rect x="39.1836" y="262.284" width="9.67742" height="9.67742" rx="4.83871" fill="#333333"/>
</svg>
